<?xml version="1.0" encoding="iso-8859-1"?>
<!-- Generator: Adobe Illustrator 26.0.1, SVG Export Plug-In . SVG Version: 6.00 Build 0)  -->
<svg version="1.1" id="Layer_1" xmlns="http://www.w3.org/2000/svg" xmlns:xlink="http://www.w3.org/1999/xlink" x="0px" y="0px"
	 viewBox="0 0 500 500" style="enable-background:new 0 0 500 500;" xml:space="preserve">
<g id="watermark_1_">
	<g>
		<g id="watermark" style="opacity:0.61;">
			<g>
				<g>
					<g>
						<g>
							<polygon style="fill:#FFFFFF;" points="213.765,461.172 208.204,474.017 205.268,474.017 199.726,461.172 202.938,461.172 
								206.846,470.347 210.81,461.172 							"/>
						</g>
						<g>
							<path style="fill:#FFFFFF;" d="M223.507,469.741h-7.469c0.275,1.23,1.321,1.982,2.826,1.982c1.046,0,1.798-0.312,2.477-0.954
								l1.523,1.651c-0.917,1.046-2.294,1.597-4.074,1.597c-3.413,0-5.634-2.147-5.634-5.083c0-2.954,2.257-5.083,5.267-5.083
								c2.899,0,5.138,1.945,5.138,5.12C223.562,469.191,223.526,469.503,223.507,469.741 M216.002,468.071h4.863
								c-0.202-1.248-1.138-2.055-2.422-2.055C217.139,466.016,216.204,466.805,216.002,468.071"/>
						</g>
						<g>
							<path style="fill:#FFFFFF;" d="M224.735,468.934c0-2.973,2.294-5.083,5.505-5.083c2.074,0,3.707,0.899,4.423,2.514
								l-2.22,1.193c-0.532-0.936-1.321-1.358-2.221-1.358c-1.45,0-2.587,1.009-2.587,2.734c0,1.725,1.138,2.734,2.587,2.734
								c0.899,0,1.688-0.404,2.221-1.358l2.22,1.211c-0.716,1.578-2.349,2.495-4.423,2.495
								C227.029,474.017,224.735,471.907,224.735,468.934"/>
						</g>
						<g>
							<path style="fill:#FFFFFF;" d="M242.828,473.393c-0.587,0.422-1.45,0.624-2.331,0.624c-2.33,0-3.688-1.193-3.688-3.542
								v-4.055h-1.523v-2.202h1.523v-2.404h2.863v2.404h2.459v2.202h-2.459v4.019c0,0.844,0.458,1.303,1.229,1.303
								c0.422,0,0.844-0.128,1.156-0.367L242.828,473.393z"/>
						</g>
					</g>
					<g>
						<path style="fill:#FFFFFF;" d="M262.474,463.997v2.643c-0.238-0.018-0.422-0.037-0.642-0.037
							c-1.578,0-2.624,0.862-2.624,2.753v4.661h-2.863v-9.873h2.734v1.303C259.776,464.493,260.951,463.997,262.474,463.997"/>
					</g>
					<g>
						<path style="fill:#FFFFFF;" d="M263.299,472.53l1.009-2.239c1.083,0.789,2.697,1.339,4.239,1.339
							c1.762,0,2.477-0.587,2.477-1.376c0-2.404-7.469-0.752-7.469-5.524c0-2.184,1.762-4,5.413-4c1.615,0,3.267,0.385,4.459,1.138
							l-0.918,2.257c-1.193-0.679-2.422-1.009-3.56-1.009c-1.761,0-2.44,0.66-2.44,1.468c0,2.367,7.468,0.734,7.468,5.45
							c0,2.147-1.78,3.982-5.45,3.982C266.492,474.017,264.437,473.411,263.299,472.53"/>
					</g>
					<g>
						<path style="fill:#FFFFFF;" d="M285.428,469.741h-7.469c0.275,1.23,1.321,1.982,2.826,1.982c1.046,0,1.798-0.312,2.477-0.954
							l1.523,1.651c-0.918,1.046-2.294,1.597-4.074,1.597c-3.413,0-5.634-2.147-5.634-5.083c0-2.954,2.257-5.083,5.267-5.083
							c2.9,0,5.138,1.945,5.138,5.12C285.484,469.191,285.447,469.503,285.428,469.741 M277.923,468.071h4.863
							c-0.202-1.248-1.138-2.055-2.422-2.055C279.061,466.016,278.125,466.805,277.923,468.071"/>
					</g>
					<g>
						<path style="fill:#FFFFFF;" d="M297.007,469.741h-7.469c0.275,1.23,1.321,1.982,2.826,1.982c1.046,0,1.798-0.312,2.477-0.954
							l1.523,1.651c-0.918,1.046-2.294,1.597-4.074,1.597c-3.413,0-5.634-2.147-5.634-5.083c0-2.954,2.257-5.083,5.267-5.083
							c2.899,0,5.138,1.945,5.138,5.12C297.062,469.191,297.025,469.503,297.007,469.741 M289.501,468.071h4.863
							c-0.202-1.248-1.138-2.055-2.422-2.055C290.639,466.016,289.703,466.805,289.501,468.071"/>
					</g>
					<g>
						<polygon style="fill:#FFFFFF;" points="303.208,470.145 301.831,471.503 301.831,474.017 298.969,474.017 298.969,460.401 
							301.831,460.401 301.831,468.108 306.016,464.144 309.429,464.144 305.318,468.328 309.796,474.017 306.327,474.017 						"/>
					</g>
					<g>
						<path style="fill:#FFFFFF;" d="M256.601,475.359L256.601,475.359l-2.86-2.86c-0.435,0.508-0.953,0.943-1.534,1.284
							c-0.092,0.069-0.186,0.136-0.283,0.199l3.027,3.027c0.456,0.456,1.195,0.456,1.65,0
							C257.057,476.554,257.057,475.815,256.601,475.359"/>
					</g>
					<g>
						<path style="fill:#FFFFFF;" d="M249.984,463.244c0.221-0.173,0.495-0.281,0.797-0.281c0.042,0,0.083,0.002,0.124,0.006
							c-0.214-0.156-0.478-0.249-0.764-0.249c-0.395,0-0.744,0.18-0.981,0.458c-0.051,0-0.1,0.006-0.151,0.008
							c0.039-0.077,0.064-0.162,0.064-0.255c0-0.234-0.143-0.434-0.346-0.519c0.087,0.126,0.138,0.279,0.138,0.445
							c0,0.122-0.031,0.237-0.081,0.341c-2.811,0.201-5.03,2.539-5.03,5.4c0,2.993,2.426,5.42,5.42,5.42
							c2.993,0,5.42-2.426,5.42-5.42C254.595,465.879,252.593,463.635,249.984,463.244 M247.983,464.656
							c0.435,0,0.844,0.112,1.199,0.309c0.374-0.245,0.82-0.387,1.299-0.387c0.711,0,1.348,0.312,1.784,0.806
							c-0.435-0.379-1.004-0.61-1.627-0.61c-0.449,0-0.87,0.12-1.234,0.329c-0.079,0.046-0.156,0.096-0.229,0.15
							c-0.065-0.048-0.133-0.093-0.204-0.134c-0.369-0.219-0.8-0.344-1.26-0.344c-0.3,0-0.588,0.054-0.854,0.152
							C247.196,464.754,247.578,464.656,247.983,464.656 M251.772,469.098c0.115,0.305,0.181,0.634,0.181,0.979
							c0,1.534-1.244,2.777-2.778,2.777c-1.534,0-2.777-1.243-2.777-2.777c0-0.345,0.066-0.674,0.181-0.979
							c-0.62-0.382-1.035-1.064-1.035-1.846c0-1.197,0.971-2.168,2.168-2.168c0.565,0,1.078,0.218,1.463,0.572
							c0.386-0.354,0.899-0.572,1.464-0.572c1.197,0,2.168,0.971,2.168,2.168C252.807,468.034,252.392,468.716,251.772,469.098"/>
					</g>
					<g>
						<path style="fill:#FFFFFF;" d="M251.666,467.061c0,0.497-0.404,0.901-0.901,0.901c-0.497,0-0.901-0.404-0.901-0.901
							s0.404-0.901,0.901-0.901c0.101,0,0.197,0.017,0.287,0.047c-0.03,0.062-0.045,0.132-0.045,0.204
							c0,0.273,0.221,0.494,0.494,0.494c0.05,0,0.099-0.008,0.146-0.022C251.66,466.941,251.666,467,251.666,467.061"/>
					</g>
					<g>
						<path style="fill:#FFFFFF;" d="M248.255,467.061c0,0.376-0.305,0.681-0.681,0.681c-0.376,0-0.681-0.305-0.681-0.681
							s0.305-0.681,0.681-0.681c0.076,0,0.149,0.013,0.217,0.035c-0.023,0.047-0.034,0.1-0.034,0.155
							c0,0.206,0.167,0.374,0.374,0.374c0.038,0,0.075-0.006,0.11-0.017C248.25,466.97,248.255,467.015,248.255,467.061"/>
					</g>
					<g>
						<g>
							<g>
								<rect x="242.908" y="467.83" style="fill:#FFFFFF;" width="0.616" height="0.616"/>
							</g>
							<g>
								<rect x="254.827" y="467.83" style="fill:#FFFFFF;" width="0.616" height="0.616"/>
							</g>
							<g>
								<path style="fill:#FFFFFF;" d="M255.205,468.082h-0.14c0-3.248-2.642-5.89-5.89-5.89c-3.248,0-5.89,2.642-5.89,5.89h-0.14
									c0-1.611,0.627-3.125,1.766-4.264c1.139-1.139,2.653-1.766,4.264-1.766c1.611,0,3.125,0.627,4.264,1.766
									C254.578,464.957,255.205,466.471,255.205,468.082"/>
							</g>
						</g>
						<g>
							<rect x="248.868" y="461.814" style="fill:#FFFFFF;" width="0.616" height="0.616"/>
						</g>
						<g>
							<rect x="244.95" y="462.052" style="fill:#FFFFFF;" width="8.45" height="0.14"/>
						</g>
						<g>
							<path style="fill:#FFFFFF;" d="M245.174,462.15c0,0.108-0.088,0.196-0.196,0.196c-0.108,0-0.196-0.088-0.196-0.196
								c0-0.108,0.088-0.196,0.196-0.196C245.086,461.954,245.174,462.042,245.174,462.15"/>
						</g>
						<g>
							<path style="fill:#FFFFFF;" d="M253.596,462.15c0,0.108-0.088,0.196-0.196,0.196c-0.108,0-0.196-0.088-0.196-0.196
								c0-0.108,0.088-0.196,0.196-0.196C253.509,461.954,253.596,462.042,253.596,462.15"/>
						</g>
					</g>
				</g>
				<g>
					<path style="fill:#FFFFFF;" d="M314.356,473.409c0,1.559-2.364,1.559-2.364,0C311.993,471.851,314.356,471.851,314.356,473.409
						z"/>
				</g>
				<g>
					<g>
						<g>
							<path style="fill:#FFFFFF;" d="M161.739,466.549l1.772,6.088l1.855-6.088h2.215l-2.823,8.14h-2.33l-0.837-2.396l-0.722-2.708
								l-0.722,2.708l-0.837,2.396h-2.33l-2.839-8.14h2.231l1.855,6.088l1.756-6.088H161.739z"/>
						</g>
						<g>
							<path style="fill:#FFFFFF;" d="M176.713,466.549l1.772,6.088l1.855-6.088h2.215l-2.823,8.14h-2.33l-0.837-2.396l-0.722-2.708
								l-0.722,2.708l-0.837,2.396h-2.33l-2.839-8.14h2.231l1.855,6.088l1.756-6.088H176.713z"/>
						</g>
						<g>
							<path style="fill:#FFFFFF;" d="M191.687,466.549l1.772,6.088l1.855-6.088h2.215l-2.823,8.14h-2.33l-0.837-2.396l-0.722-2.708
								l-0.722,2.708l-0.837,2.396h-2.33l-2.839-8.14h2.231l1.855,6.088l1.756-6.088H191.687z"/>
						</g>
					</g>
					<g>
						<path style="fill:#FFFFFF;" d="M200.908,473.52c0,1.559-2.364,1.559-2.364,0C198.545,471.962,200.908,471.962,200.908,473.52z
							"/>
					</g>
					<g>
						<path style="fill:#FFFFFF;" d="M322.71,473.409c-0.935,0.919-1.919,1.28-3.117,1.28c-2.346,0-4.3-1.411-4.3-4.282
							s1.953-4.284,4.3-4.284c1.149,0,2.035,0.329,2.921,1.199l-1.264,1.329c-0.476-0.428-1.066-0.64-1.623-0.64
							c-1.346,0-2.33,0.985-2.33,2.396c0,1.542,1.05,2.362,2.297,2.362c0.64,0,1.28-0.18,1.772-0.672L322.71,473.409z"/>
					</g>
					<g>
						<path style="fill:#FFFFFF;" d="M331.805,470.472c0,2.33-1.591,4.217-4.217,4.217c-2.626,0-4.201-1.887-4.201-4.217
							c0-2.314,1.609-4.217,4.185-4.217C330.149,466.255,331.805,468.158,331.805,470.472z M325.389,470.472
							c0,1.231,0.739,2.38,2.199,2.38c1.46,0,2.199-1.149,2.199-2.38c0-1.215-0.854-2.396-2.199-2.396
							C326.144,468.077,325.389,469.258,325.389,470.472z"/>
					</g>
					<g>
						<path style="fill:#FFFFFF;" d="M338.572,474.689v-4.332c0-1.068-0.559-2.035-1.658-2.035c-1.082,0-1.722,0.967-1.722,2.035
							v4.332h-2.003v-8.107h1.855l0.148,0.985c0.426-0.82,1.362-1.116,2.133-1.116c0.969,0,1.937,0.394,2.396,1.51
							c0.723-1.149,1.658-1.478,2.708-1.478c2.297,0,3.43,1.412,3.43,3.84v4.365h-2.003v-4.365c0-1.066-0.442-1.97-1.526-1.97
							c-1.082,0-1.756,0.935-1.756,2.003v4.332H338.572z"/>
					</g>
				</g>
			</g>
		</g>
		<g style="opacity:0.61;">
			<g>
				<g>
					<path style="fill:#FFFFFF;" d="M345.988,431.299c-0.006-1.224-0.959-2.121-2.189-2.14c-0.924-0.014-0.832,0.12-0.834-0.867
						c-0.003-1.097-0.007-2.194,0.003-3.292c0.003-0.379-0.112-0.691-0.362-0.976c-2.342-2.668-4.678-5.342-7.019-8.011
						c-0.12-0.137-0.275-0.244-0.414-0.366c-6.214,0-12.427,0-18.641,0c-0.794,0.293-1.14,0.868-1.138,1.709
						c0.01,3.748,0.004,7.496,0.004,11.243c0,0.556-0.003,0.589-0.55,0.551c-1.497-0.102-2.516,0.986-2.497,2.492
						c0.044,3.476,0.013,6.953,0.014,10.429c0.001,1.58,0.867,2.443,2.45,2.449c0.582,0.002,0.582,0.002,0.582,0.6
						c0,2.219-0.001,4.438,0.001,6.657c0.001,1.192,0.58,1.771,1.768,1.771c8.013,0.001,16.027,0.001,24.04,0
						c1.168,0,1.755-0.583,1.757-1.745c0.002-2.256,0-4.512,0.001-6.768c0-0.512,0.002-0.511,0.52-0.515
						c0.271-0.002,0.541,0.008,0.809-0.058c0.996-0.246,1.69-1.044,1.694-2.069C346.003,438.696,346.005,434.997,345.988,431.299z
						 M317.537,417.162c5.337,0,10.674,0,16.01,0c0.548,0,0.554,0.007,0.554,0.561c0.001,2.243-0.001,4.486,0.001,6.73
						c0.001,0.811,0.249,1.059,1.06,1.059c1.91,0.001,3.821,0,5.731,0.001c0.458,0,0.479,0.021,0.481,0.483
						c0.003,0.887,0.002,1.775,0,2.662c-0.001,0.477-0.024,0.498-0.504,0.499c-3.895,0.001-7.79,0-11.684,0
						c-3.882,0-7.765,0-11.647,0c-0.55,0-0.552-0.001-0.552-0.561c-0.001-3.624-0.001-7.247,0-10.871
						C316.987,417.166,316.991,417.162,317.537,417.162z M340.822,451.579c-3.883,0.001-7.766,0-11.65,0c-3.871,0-7.742,0-11.613,0
						c-0.572,0-0.574-0.002-0.574-0.579c-0.001-1.997-0.001-3.994,0.001-5.991c0-0.464,0.023-0.486,0.478-0.487
						c7.803-0.001,15.607-0.001,23.41,0c0.478,0,0.499,0.02,0.499,0.503c0.002,1.997,0.001,3.994,0,5.991
						C341.375,451.574,341.37,451.579,340.822,451.579z"/>
				</g>
				<g>
					<g>
						<rect x="327.418" y="417.053" style="fill:#FFFFFF;" width="1.757" height="1.054"/>
					</g>
					<g>
						<rect x="325.662" y="418.107" style="fill:#FFFFFF;" width="1.757" height="1.054"/>
					</g>
					<g>
						<rect x="327.418" y="419.161" style="fill:#FFFFFF;" width="1.757" height="1.054"/>
					</g>
					<g>
						<rect x="325.662" y="420.215" style="fill:#FFFFFF;" width="1.757" height="1.054"/>
					</g>
					<g>
						<rect x="327.418" y="421.269" style="fill:#FFFFFF;" width="1.757" height="1.054"/>
					</g>
					<g>
						<rect x="325.662" y="422.323" style="fill:#FFFFFF;" width="1.757" height="1.054"/>
					</g>
					<g>
						<rect x="327.418" y="423.378" style="fill:#FFFFFF;" width="1.757" height="1.054"/>
					</g>
					<g>
						<rect x="325.662" y="424.432" style="fill:#FFFFFF;" width="1.757" height="1.054"/>
					</g>
					<g>
						<rect x="327.418" y="425.486" style="fill:#FFFFFF;" width="1.757" height="1.054"/>
					</g>
					<g>
						<rect x="325.662" y="426.54" style="fill:#FFFFFF;" width="1.757" height="1.054"/>
					</g>
					<g>
						<rect x="327.418" y="427.594" style="fill:#FFFFFF;" width="1.757" height="1.054"/>
					</g>
					<g>
						<rect x="325.662" y="428.648" style="fill:#FFFFFF;" width="1.757" height="1.054"/>
					</g>
				</g>
			</g>
			<g>
				<path style="fill:#FFFFFF;" d="M187.637,431.299c-0.006-1.224-0.959-2.121-2.189-2.14c-0.924-0.014-0.832,0.12-0.834-0.867
					c-0.003-1.097-0.007-2.194,0.003-3.292c0.003-0.379-0.112-0.691-0.362-0.976c-2.342-2.668-4.678-5.342-7.019-8.011
					c-0.12-0.137-0.275-0.244-0.414-0.366c-6.214,0-12.427,0-18.641,0c-0.794,0.293-1.14,0.868-1.138,1.709
					c0.01,3.748,0.004,7.496,0.004,11.243c0,0.556-0.003,0.589-0.55,0.551c-1.497-0.102-2.516,0.986-2.497,2.492
					c0.044,3.476,0.013,6.953,0.014,10.429c0.001,1.58,0.867,2.443,2.45,2.449c0.582,0.002,0.582,0.002,0.582,0.6
					c0,2.219-0.001,4.438,0.001,6.657c0.001,1.192,0.58,1.771,1.768,1.771c8.013,0.001,16.027,0.001,24.04,0
					c1.168,0,1.755-0.583,1.757-1.745c0.002-2.256,0-4.512,0.001-6.768c0-0.512,0.002-0.511,0.52-0.515
					c0.271-0.002,0.541,0.008,0.809-0.058c0.996-0.246,1.69-1.044,1.694-2.069C187.652,438.696,187.655,434.997,187.637,431.299z
					 M159.187,417.162c5.337,0,10.674,0,16.01,0c0.548,0,0.554,0.007,0.554,0.561c0.001,2.243-0.001,4.486,0.001,6.73
					c0.001,0.811,0.249,1.059,1.06,1.059c1.91,0.001,3.821,0,5.731,0.001c0.458,0,0.479,0.021,0.481,0.483
					c0.003,0.887,0.002,1.775,0,2.662c-0.001,0.477-0.024,0.498-0.504,0.499c-3.895,0.001-7.79,0-11.684,0
					c-3.882,0-7.765,0-11.647,0c-0.55,0-0.552-0.001-0.552-0.561c-0.001-3.624-0.001-7.247,0-10.871
					C158.636,417.166,158.64,417.162,159.187,417.162z M182.472,451.579c-3.883,0.001-7.766,0-11.65,0c-3.871,0-7.742,0-11.613,0
					c-0.572,0-0.574-0.002-0.574-0.579c-0.001-1.997-0.001-3.994,0.001-5.991c0-0.464,0.023-0.486,0.478-0.487
					c7.803-0.001,15.607-0.001,23.41,0c0.478,0,0.499,0.02,0.499,0.503c0.002,1.997,0.001,3.994,0,5.991
					C183.024,451.574,183.019,451.579,182.472,451.579z"/>
			</g>
			<g>
				<path style="fill:#FFFFFF;" d="M159.779,440.669v-7.897h2.779c0.375,0,0.726,0.061,1.053,0.182
					c0.327,0.121,0.612,0.292,0.855,0.513c0.242,0.221,0.434,0.483,0.573,0.789c0.14,0.305,0.21,0.642,0.21,1.009
					c0,0.375-0.07,0.715-0.21,1.02c-0.14,0.305-0.331,0.568-0.573,0.789c-0.243,0.221-0.528,0.392-0.855,0.513
					c-0.327,0.121-0.678,0.182-1.053,0.182h-1.29v2.901H159.779z M162.58,436.356c0.39,0,0.684-0.111,0.882-0.331
					c0.199-0.22,0.298-0.474,0.298-0.761c0-0.14-0.024-0.276-0.072-0.408c-0.048-0.132-0.121-0.248-0.221-0.347
					c-0.099-0.099-0.223-0.178-0.37-0.237c-0.147-0.059-0.32-0.089-0.518-0.089h-1.312v2.173H162.58z"/>
				<path style="fill:#FFFFFF;" d="M166.308,432.771h1.731l3.177,5.294h0.088l-0.088-1.522v-3.772h1.478v7.897h-1.566l-3.353-5.592
					h-0.088l0.088,1.522v4.07h-1.467V432.771z"/>
				<path style="fill:#FFFFFF;" d="M177.922,436.334h3.872c0.022,0.089,0.04,0.195,0.055,0.32c0.014,0.125,0.022,0.25,0.022,0.375
					c0,0.507-0.077,0.985-0.231,1.434c-0.154,0.449-0.397,0.849-0.728,1.202c-0.353,0.375-0.776,0.666-1.268,0.871
					c-0.493,0.206-1.055,0.309-1.688,0.309c-0.574,0-1.114-0.103-1.622-0.309c-0.507-0.206-0.948-0.492-1.323-0.86
					c-0.375-0.367-0.673-0.803-0.894-1.307c-0.221-0.504-0.331-1.053-0.331-1.649c0-0.595,0.11-1.145,0.331-1.649
					c0.221-0.504,0.518-0.939,0.894-1.307c0.375-0.367,0.816-0.654,1.323-0.86c0.507-0.206,1.048-0.309,1.622-0.309
					c0.64,0,1.211,0.11,1.715,0.331c0.504,0.221,0.935,0.526,1.296,0.915l-1.025,1.004c-0.258-0.272-0.544-0.48-0.861-0.623
					c-0.316-0.143-0.695-0.215-1.136-0.215c-0.361,0-0.703,0.065-1.026,0.193c-0.324,0.129-0.607,0.311-0.85,0.546
					c-0.242,0.235-0.436,0.52-0.579,0.855c-0.143,0.335-0.215,0.708-0.215,1.119c0,0.412,0.072,0.785,0.215,1.12
					c0.143,0.335,0.338,0.62,0.584,0.855c0.246,0.235,0.531,0.418,0.855,0.546c0.323,0.129,0.669,0.193,1.037,0.193
					c0.419,0,0.773-0.061,1.064-0.182c0.29-0.121,0.538-0.278,0.744-0.469c0.148-0.132,0.275-0.3,0.381-0.502
					c0.106-0.202,0.189-0.428,0.248-0.678h-2.482V436.334z"/>
			</g>
			<g>
				<path style="fill:#FFFFFF;" d="M224.019,431.299c-0.006-1.224-0.959-2.121-2.189-2.14c-0.924-0.014-0.832,0.12-0.834-0.867
					c-0.003-1.097-0.007-2.194,0.003-3.292c0.003-0.379-0.112-0.691-0.362-0.976c-2.342-2.668-4.678-5.342-7.019-8.011
					c-0.12-0.137-0.275-0.244-0.414-0.366c-6.214,0-12.427,0-18.641,0c-0.794,0.293-1.14,0.868-1.138,1.709
					c0.01,3.748,0.004,7.496,0.004,11.243c0,0.556-0.003,0.589-0.55,0.551c-1.497-0.102-2.516,0.986-2.497,2.492
					c0.044,3.476,0.013,6.953,0.014,10.429c0.001,1.58,0.867,2.443,2.45,2.449c0.582,0.002,0.582,0.002,0.582,0.6
					c0,2.219-0.001,4.438,0.001,6.657c0.001,1.192,0.58,1.771,1.768,1.771c8.013,0.001,16.027,0.001,24.04,0
					c1.168,0,1.755-0.583,1.757-1.745c0.002-2.256,0-4.512,0.001-6.768c0-0.512,0.002-0.511,0.52-0.515
					c0.271-0.002,0.541,0.008,0.809-0.058c0.997-0.246,1.69-1.044,1.694-2.069C224.034,438.696,224.036,434.997,224.019,431.299z
					 M195.568,417.162c5.337,0,10.674,0,16.01,0c0.548,0,0.554,0.007,0.554,0.561c0.001,2.243-0.001,4.486,0.001,6.73
					c0.001,0.811,0.249,1.059,1.06,1.059c1.91,0.001,3.821,0,5.731,0.001c0.458,0,0.479,0.021,0.481,0.483
					c0.003,0.887,0.002,1.775,0,2.662c-0.001,0.477-0.024,0.498-0.504,0.499c-3.895,0.001-7.79,0-11.684,0
					c-3.882,0-7.765,0-11.647,0c-0.55,0-0.552-0.001-0.552-0.561c-0.001-3.624-0.001-7.247,0-10.871
					C195.018,417.166,195.022,417.162,195.568,417.162z M218.854,451.579c-3.883,0.001-7.766,0-11.65,0c-3.871,0-7.742,0-11.613,0
					c-0.572,0-0.574-0.002-0.574-0.579c-0.001-1.997-0.001-3.994,0.001-5.991c0-0.464,0.023-0.486,0.478-0.487
					c7.803-0.001,15.607-0.001,23.41,0c0.478,0,0.499,0.02,0.499,0.503c0.002,1.997,0.001,3.994,0,5.991
					C219.406,451.574,219.401,451.579,218.854,451.579z"/>
			</g>
			<g>
				<path style="fill:#FFFFFF;" d="M205.111,432.771h1.699l2.967,7.897h-1.644l-0.651-1.886h-3.044l-0.651,1.886h-1.643
					L205.111,432.771z M206.997,437.415l-0.706-1.974l-0.287-0.96h-0.088l-0.287,0.96l-0.706,1.974H206.997z"/>
				<path style="fill:#FFFFFF;" d="M211.331,434.536c-0.125,0-0.245-0.024-0.359-0.072c-0.114-0.048-0.213-0.114-0.298-0.199
					c-0.084-0.084-0.151-0.182-0.198-0.292c-0.048-0.11-0.072-0.232-0.072-0.364s0.024-0.254,0.072-0.364
					c0.048-0.11,0.114-0.208,0.198-0.292c0.084-0.084,0.184-0.151,0.298-0.198c0.114-0.048,0.233-0.072,0.359-0.072
					c0.257,0,0.478,0.09,0.662,0.27c0.184,0.181,0.276,0.399,0.276,0.656s-0.092,0.476-0.276,0.656
					C211.809,434.446,211.589,434.536,211.331,434.536z M210.615,440.669v-5.404h1.445v5.404H210.615z"/>
			</g>
			<g>
				<path style="fill:#FFFFFF;" d="M261.044,431.299c-0.006-1.224-0.959-2.121-2.189-2.14c-0.924-0.014-0.832,0.12-0.834-0.867
					c-0.003-1.097-0.007-2.194,0.003-3.292c0.003-0.379-0.112-0.691-0.362-0.976c-2.342-2.668-4.678-5.342-7.019-8.011
					c-0.12-0.137-0.275-0.244-0.414-0.366c-6.214,0-12.427,0-18.641,0c-0.794,0.293-1.14,0.868-1.138,1.709
					c0.01,3.748,0.004,7.496,0.004,11.243c0,0.556-0.003,0.589-0.55,0.551c-1.497-0.102-2.516,0.986-2.497,2.492
					c0.044,3.476,0.013,6.953,0.014,10.429c0.001,1.58,0.867,2.443,2.45,2.449c0.582,0.002,0.582,0.002,0.582,0.6
					c0,2.219-0.001,4.438,0.001,6.657c0.001,1.192,0.58,1.771,1.768,1.771c8.013,0.001,16.027,0.001,24.04,0
					c1.168,0,1.755-0.583,1.757-1.745c0.002-2.256,0-4.512,0.001-6.768c0-0.512,0.002-0.511,0.52-0.515
					c0.271-0.002,0.541,0.008,0.809-0.058c0.996-0.246,1.69-1.044,1.694-2.069C261.059,438.696,261.061,434.997,261.044,431.299z
					 M232.593,417.162c5.337,0,10.674,0,16.01,0c0.548,0,0.554,0.007,0.554,0.561c0.001,2.243-0.001,4.486,0.001,6.73
					c0.001,0.811,0.249,1.059,1.06,1.059c1.91,0.001,3.821,0,5.731,0.001c0.458,0,0.479,0.021,0.481,0.483
					c0.003,0.887,0.002,1.775,0,2.662c-0.001,0.477-0.024,0.498-0.504,0.499c-3.895,0.001-7.79,0-11.684,0
					c-3.882,0-7.765,0-11.647,0c-0.55,0-0.552-0.001-0.552-0.561c-0.001-3.624-0.001-7.247,0-10.871
					C232.042,417.166,232.047,417.162,232.593,417.162z M255.878,451.579c-3.883,0.001-7.766,0-11.65,0c-3.871,0-7.742,0-11.613,0
					c-0.572,0-0.574-0.002-0.574-0.579c-0.001-1.997-0.001-3.994,0.001-5.991c0-0.464,0.023-0.486,0.478-0.487
					c7.803-0.001,15.607-0.001,23.41,0c0.478,0,0.499,0.02,0.499,0.503c0.002,1.997,0.001,3.994,0,5.991
					C256.431,451.574,256.426,451.579,255.878,451.579z"/>
			</g>
			<g>
				<path style="fill:#FFFFFF;" d="M236.361,440.845c-0.338,0-0.662-0.048-0.971-0.143c-0.309-0.095-0.592-0.239-0.849-0.43
					c-0.257-0.191-0.481-0.425-0.673-0.7c-0.191-0.276-0.342-0.597-0.452-0.965l1.401-0.551c0.103,0.397,0.283,0.726,0.54,0.987
					c0.257,0.261,0.596,0.392,1.015,0.392c0.154,0,0.303-0.02,0.447-0.061c0.143-0.04,0.272-0.099,0.386-0.176
					s0.204-0.175,0.27-0.292c0.066-0.118,0.099-0.254,0.099-0.408c0-0.147-0.026-0.279-0.077-0.397
					c-0.051-0.117-0.138-0.227-0.259-0.331c-0.121-0.103-0.28-0.202-0.475-0.298c-0.195-0.095-0.435-0.195-0.722-0.298l-0.485-0.176
					c-0.213-0.073-0.429-0.173-0.645-0.298c-0.217-0.125-0.413-0.276-0.59-0.452c-0.177-0.176-0.322-0.384-0.436-0.623
					c-0.114-0.239-0.171-0.509-0.171-0.81c0-0.309,0.06-0.597,0.182-0.866c0.121-0.268,0.294-0.503,0.518-0.706
					c0.224-0.202,0.492-0.36,0.805-0.474s0.66-0.171,1.042-0.171c0.397,0,0.74,0.053,1.031,0.16
					c0.291,0.107,0.537,0.243,0.739,0.408c0.202,0.165,0.366,0.348,0.491,0.546c0.125,0.199,0.217,0.386,0.276,0.563l-1.312,0.551
					c-0.074-0.221-0.208-0.419-0.402-0.596c-0.195-0.176-0.462-0.265-0.8-0.265c-0.324,0-0.592,0.075-0.805,0.226
					c-0.213,0.151-0.32,0.348-0.32,0.59c0,0.235,0.103,0.436,0.309,0.601c0.206,0.165,0.533,0.325,0.982,0.48l0.497,0.165
					c0.316,0.111,0.605,0.237,0.866,0.381c0.261,0.143,0.485,0.314,0.673,0.513c0.187,0.199,0.331,0.425,0.43,0.678
					c0.1,0.254,0.149,0.546,0.149,0.877c0,0.412-0.083,0.767-0.248,1.064c-0.165,0.298-0.377,0.542-0.634,0.734
					c-0.258,0.191-0.548,0.335-0.872,0.43C236.986,440.797,236.67,440.845,236.361,440.845z"/>
				<path style="fill:#FFFFFF;" d="M239.516,432.771h1.61l1.633,4.754l0.287,1.015h0.088l0.309-1.015l1.699-4.754h1.61l-2.879,7.897
					h-1.566L239.516,432.771z"/>
				<path style="fill:#FFFFFF;" d="M251.097,436.334h3.871c0.022,0.089,0.04,0.195,0.055,0.32c0.015,0.125,0.023,0.25,0.023,0.375
					c0,0.507-0.078,0.985-0.232,1.434c-0.154,0.449-0.397,0.849-0.728,1.202c-0.353,0.375-0.775,0.666-1.268,0.871
					c-0.493,0.206-1.055,0.309-1.688,0.309c-0.574,0-1.114-0.103-1.621-0.309c-0.507-0.206-0.949-0.492-1.324-0.86
					c-0.375-0.367-0.673-0.803-0.894-1.307c-0.22-0.504-0.331-1.053-0.331-1.649c0-0.595,0.11-1.145,0.331-1.649
					c0.221-0.504,0.518-0.939,0.894-1.307c0.375-0.367,0.816-0.654,1.324-0.86c0.507-0.206,1.047-0.309,1.621-0.309
					c0.64,0,1.211,0.11,1.715,0.331c0.504,0.221,0.936,0.526,1.296,0.915l-1.026,1.004c-0.257-0.272-0.544-0.48-0.861-0.623
					c-0.316-0.143-0.694-0.215-1.136-0.215c-0.36,0-0.702,0.065-1.026,0.193c-0.323,0.129-0.607,0.311-0.849,0.546
					c-0.243,0.235-0.436,0.52-0.579,0.855c-0.143,0.335-0.215,0.708-0.215,1.119c0,0.412,0.072,0.785,0.215,1.12
					c0.143,0.335,0.338,0.62,0.585,0.855c0.246,0.235,0.531,0.418,0.854,0.546c0.324,0.129,0.669,0.193,1.037,0.193
					c0.419,0,0.774-0.061,1.064-0.182c0.29-0.121,0.539-0.278,0.745-0.469c0.147-0.132,0.274-0.3,0.38-0.502
					c0.107-0.202,0.189-0.428,0.248-0.678h-2.482V436.334z"/>
			</g>
			<g>
				<path style="fill:#FFFFFF;" d="M297.3,431.299c-0.006-1.224-0.959-2.121-2.189-2.14c-0.924-0.014-0.832,0.12-0.834-0.867
					c-0.003-1.097-0.007-2.194,0.003-3.292c0.003-0.379-0.112-0.691-0.362-0.976c-2.342-2.668-4.678-5.342-7.019-8.011
					c-0.12-0.137-0.275-0.244-0.414-0.366c-6.214,0-12.427,0-18.641,0c-0.794,0.293-1.14,0.868-1.138,1.709
					c0.01,3.748,0.004,7.496,0.004,11.243c0,0.556-0.003,0.589-0.55,0.551c-1.497-0.102-2.516,0.986-2.497,2.492
					c0.044,3.476,0.013,6.953,0.014,10.429c0.001,1.58,0.867,2.443,2.45,2.449c0.582,0.002,0.582,0.002,0.582,0.6
					c0,2.219-0.001,4.438,0.001,6.657c0.001,1.192,0.58,1.771,1.768,1.771c8.013,0.001,16.027,0.001,24.04,0
					c1.168,0,1.755-0.583,1.757-1.745c0.002-2.256,0-4.512,0.001-6.768c0-0.512,0.002-0.511,0.52-0.515
					c0.271-0.002,0.541,0.008,0.809-0.058c0.996-0.246,1.69-1.044,1.694-2.069C297.315,438.696,297.318,434.997,297.3,431.299z
					 M268.85,417.162c5.337,0,10.674,0,16.01,0c0.548,0,0.554,0.007,0.554,0.561c0.001,2.243-0.001,4.486,0.001,6.73
					c0.001,0.811,0.249,1.059,1.06,1.059c1.91,0.001,3.821,0,5.731,0.001c0.458,0,0.479,0.021,0.481,0.483
					c0.003,0.887,0.002,1.775,0,2.662c-0.001,0.477-0.024,0.498-0.504,0.499c-3.895,0.001-7.79,0-11.684,0
					c-3.882,0-7.765,0-11.647,0c-0.55,0-0.552-0.001-0.552-0.561c-0.001-3.624-0.001-7.247,0-10.871
					C268.299,417.166,268.303,417.162,268.85,417.162z M292.135,451.579c-3.883,0.001-7.766,0-11.65,0c-3.871,0-7.742,0-11.613,0
					c-0.572,0-0.574-0.002-0.574-0.579c-0.001-1.997-0.001-3.994,0.001-5.991c0-0.464,0.023-0.486,0.478-0.487
					c7.803-0.001,15.607-0.001,23.41,0c0.478,0,0.499,0.02,0.499,0.503c0.001,1.997,0.001,3.994,0,5.991
					C292.687,451.574,292.682,451.579,292.135,451.579z"/>
			</g>
			<g>
				<path style="fill:#FFFFFF;" d="M272.966,434.183v1.831h3.165v1.412h-3.165v1.831h3.518v1.412h-5.007v-7.897h5.007v1.412H272.966
					z"/>
				<path style="fill:#FFFFFF;" d="M277.852,440.669v-7.897h2.779c0.375,0,0.726,0.061,1.053,0.182
					c0.327,0.121,0.612,0.292,0.855,0.513c0.243,0.221,0.434,0.483,0.574,0.789c0.14,0.305,0.209,0.642,0.209,1.009
					c0,0.375-0.07,0.715-0.209,1.02c-0.14,0.305-0.331,0.568-0.574,0.789c-0.243,0.221-0.528,0.392-0.855,0.513
					c-0.327,0.121-0.678,0.182-1.053,0.182h-1.29v2.901H277.852z M280.653,436.356c0.389,0,0.684-0.111,0.882-0.331
					c0.199-0.22,0.298-0.474,0.298-0.761c0-0.14-0.024-0.276-0.072-0.408c-0.048-0.132-0.121-0.248-0.221-0.347
					c-0.099-0.099-0.222-0.178-0.37-0.237c-0.147-0.059-0.32-0.089-0.518-0.089h-1.312v2.173H280.653z"/>
				<path style="fill:#FFFFFF;" d="M286.797,440.845c-0.338,0-0.662-0.048-0.971-0.143c-0.309-0.095-0.592-0.239-0.849-0.43
					c-0.257-0.191-0.482-0.425-0.673-0.7c-0.191-0.276-0.342-0.597-0.452-0.965l1.401-0.551c0.103,0.397,0.283,0.726,0.541,0.987
					c0.257,0.261,0.595,0.392,1.015,0.392c0.154,0,0.303-0.02,0.447-0.061c0.143-0.04,0.272-0.099,0.386-0.176
					c0.114-0.077,0.204-0.175,0.27-0.292c0.066-0.118,0.1-0.254,0.1-0.408c0-0.147-0.026-0.279-0.077-0.397
					c-0.051-0.117-0.138-0.227-0.259-0.331c-0.121-0.103-0.279-0.202-0.474-0.298c-0.195-0.095-0.436-0.195-0.723-0.298
					l-0.485-0.176c-0.213-0.073-0.428-0.173-0.645-0.298c-0.217-0.125-0.414-0.276-0.59-0.452c-0.176-0.176-0.322-0.384-0.436-0.623
					c-0.114-0.239-0.171-0.509-0.171-0.81c0-0.309,0.061-0.597,0.182-0.866c0.121-0.268,0.294-0.503,0.518-0.706
					c0.224-0.202,0.493-0.36,0.805-0.474c0.312-0.114,0.66-0.171,1.042-0.171c0.397,0,0.741,0.053,1.031,0.16
					c0.29,0.107,0.537,0.243,0.739,0.408c0.202,0.165,0.365,0.348,0.491,0.546c0.125,0.199,0.217,0.386,0.276,0.563l-1.312,0.551
					c-0.074-0.221-0.208-0.419-0.403-0.596c-0.195-0.176-0.462-0.265-0.799-0.265c-0.324,0-0.592,0.075-0.805,0.226
					c-0.213,0.151-0.32,0.348-0.32,0.59c0,0.235,0.103,0.436,0.309,0.601c0.206,0.165,0.533,0.325,0.982,0.48l0.496,0.165
					c0.316,0.111,0.605,0.237,0.866,0.381c0.261,0.143,0.485,0.314,0.673,0.513c0.187,0.199,0.331,0.425,0.43,0.678
					c0.099,0.254,0.149,0.546,0.149,0.877c0,0.412-0.083,0.767-0.248,1.064c-0.165,0.298-0.377,0.542-0.634,0.734
					c-0.258,0.191-0.548,0.335-0.872,0.43C287.422,440.797,287.105,440.845,286.797,440.845z"/>
			</g>
			<g>
				<path style="fill:#FFFFFF;" d="M321.394,439.168l4.004-4.985h-3.827v-1.412h5.559v1.5l-3.96,4.985h4.004v1.412h-5.779V439.168z"
					/>
				<path style="fill:#FFFFFF;" d="M328.409,432.771h1.489v7.897h-1.489V432.771z"/>
				<path style="fill:#FFFFFF;" d="M331.486,440.669v-7.897h2.779c0.375,0,0.726,0.061,1.053,0.182
					c0.327,0.121,0.612,0.292,0.855,0.513s0.434,0.483,0.574,0.789c0.14,0.305,0.209,0.642,0.209,1.009
					c0,0.375-0.07,0.715-0.209,1.02c-0.14,0.305-0.331,0.568-0.574,0.789c-0.243,0.221-0.528,0.392-0.855,0.513
					c-0.327,0.121-0.678,0.182-1.053,0.182h-1.29v2.901H331.486z M334.288,436.356c0.389,0,0.684-0.111,0.882-0.331
					c0.199-0.22,0.298-0.474,0.298-0.761c0-0.14-0.024-0.276-0.072-0.408c-0.048-0.132-0.121-0.248-0.221-0.347
					c-0.099-0.099-0.222-0.178-0.37-0.237c-0.147-0.059-0.32-0.089-0.518-0.089h-1.312v2.173H334.288z"/>
			</g>
		</g>
		<g style="opacity:0.61;">
			<path style="fill:#FFFFFF;" d="M300.133,433.27h9.067v2.242h-9.067V433.27z M300.133,437.136h9.067v2.243h-9.067V437.136z"/>
		</g>
	</g>
	<g style="opacity:0.61;">
		<path style="fill:#FFFFFF;" d="M156.756,478.878h1.607c1.263,0,2.114,0.812,2.114,1.974c0,1.161-0.851,1.973-2.114,1.973h-1.607
			V478.878z M158.34,482.464c1.049,0,1.725-0.665,1.725-1.612c0-0.947-0.677-1.613-1.725-1.613h-1.167v3.225H158.34z"/>
		<path style="fill:#FFFFFF;" d="M165.139,480.851c0-1.15,0.879-2.007,2.075-2.007c1.184,0,2.069,0.851,2.069,2.007
			c0,1.156-0.885,2.007-2.069,2.007C166.019,482.858,165.139,482.002,165.139,480.851z M168.866,480.851
			c0-0.942-0.705-1.635-1.652-1.635c-0.953,0-1.663,0.693-1.663,1.635c0,0.941,0.71,1.635,1.663,1.635
			C168.162,482.486,168.866,481.793,168.866,480.851z"/>
		<path style="fill:#FFFFFF;" d="M179.596,478.878l-1.331,3.947h-0.44l-1.156-3.366l-1.161,3.366h-0.434l-1.331-3.947h0.429
			l1.139,3.394l1.178-3.394h0.389l1.161,3.411l1.156-3.411H179.596z"/>
		<path style="fill:#FFFFFF;" d="M187.731,478.878v3.947h-0.344l-2.537-3.202v3.202h-0.417v-3.947h0.344l2.543,3.203v-3.203H187.731
			z"/>
		<path style="fill:#FFFFFF;" d="M193.093,478.878h0.417v3.586h2.21v0.361h-2.627V478.878z"/>
		<path style="fill:#FFFFFF;" d="M200.061,480.851c0-1.15,0.879-2.007,2.075-2.007c1.184,0,2.069,0.851,2.069,2.007
			c0,1.156-0.885,2.007-2.069,2.007C200.941,482.858,200.061,482.002,200.061,480.851z M203.788,480.851
			c0-0.942-0.705-1.635-1.652-1.635c-0.953,0-1.663,0.693-1.663,1.635c0,0.941,0.71,1.635,1.663,1.635
			C203.083,482.486,203.788,481.793,203.788,480.851z"/>
		<path style="fill:#FFFFFF;" d="M211.636,481.77h-2.199l-0.474,1.054h-0.434l1.804-3.947h0.412l1.804,3.947h-0.44L211.636,481.77z
			 M211.484,481.432l-0.947-2.12l-0.947,2.12H211.484z"/>
		<path style="fill:#FFFFFF;" d="M217.28,478.878h1.607c1.263,0,2.114,0.812,2.114,1.974c0,1.161-0.851,1.973-2.114,1.973h-1.607
			V478.878z M218.864,482.464c1.049,0,1.725-0.665,1.725-1.612c0-0.947-0.677-1.613-1.725-1.613h-1.167v3.225H218.864z"/>
		<path style="fill:#FFFFFF;" d="M234.041,481.77h-2.199l-0.474,1.054h-0.434l1.804-3.947h0.412l1.804,3.947h-0.44L234.041,481.77z
			 M233.889,481.432l-0.947-2.12l-0.947,2.12H233.889z"/>
		<path style="fill:#FFFFFF;" d="M239.685,478.878h0.417v3.586h2.21v0.361h-2.627V478.878z"/>
		<path style="fill:#FFFFFF;" d="M247.082,478.878h0.417v3.586h2.21v0.361h-2.627V478.878z"/>
		<path style="fill:#FFFFFF;" d="M260.449,479.239v1.551h2.041v0.361h-2.041v1.675h-0.417v-3.947h2.706v0.361H260.449z"/>
		<path style="fill:#FFFFFF;" d="M267.678,478.878h0.417v3.947h-0.417V478.878z"/>
		<path style="fill:#FFFFFF;" d="M273.456,478.878h0.417v3.586h2.21v0.361h-2.627V478.878z"/>
		<path style="fill:#FFFFFF;" d="M283.644,482.464v0.361h-2.791v-3.947h2.706v0.361h-2.289v1.404h2.041v0.355h-2.041v1.466H283.644z
			"/>
		<path style="fill:#FFFFFF;" d="M294.672,479.239v1.551h2.041v0.361h-2.041v1.675h-0.417v-3.947h2.706v0.361H294.672z"/>
		<path style="fill:#FFFFFF;" d="M301.5,480.851c0-1.15,0.879-2.007,2.075-2.007c1.184,0,2.069,0.851,2.069,2.007
			c0,1.156-0.885,2.007-2.069,2.007C302.379,482.858,301.5,482.002,301.5,480.851z M305.226,480.851
			c0-0.942-0.705-1.635-1.652-1.635c-0.953,0-1.663,0.693-1.663,1.635c0,0.941,0.71,1.635,1.663,1.635
			C304.522,482.486,305.226,481.793,305.226,480.851z"/>
		<path style="fill:#FFFFFF;" d="M313.351,482.825l-0.902-1.269c-0.102,0.011-0.203,0.017-0.316,0.017h-1.06v1.252h-0.417v-3.947
			h1.477c1.004,0,1.613,0.507,1.613,1.353c0,0.62-0.327,1.054-0.902,1.24l0.964,1.353H313.351z M313.328,480.231
			c0-0.632-0.417-0.992-1.207-0.992h-1.048v1.979h1.048C312.911,481.218,313.328,480.851,313.328,480.231z"/>
		<path style="fill:#FFFFFF;" d="M322.907,478.878v3.947h-0.4v-3.158l-1.551,2.656h-0.197l-1.551-2.639v3.14h-0.4v-3.947h0.344
			l1.714,2.926l1.697-2.926H322.907z"/>
		<path style="fill:#FFFFFF;" d="M330.744,481.77h-2.199l-0.473,1.054h-0.434l1.804-3.947h0.411l1.804,3.947h-0.44L330.744,481.77z
			 M330.592,481.432l-0.947-2.12l-0.947,2.12H330.592z"/>
		<path style="fill:#FFFFFF;" d="M336.957,479.239h-1.387v-0.361h3.192v0.361h-1.387v3.586h-0.417V479.239z"/>
		<path style="fill:#FFFFFF;" d="M343.063,482.346l0.164-0.321c0.282,0.276,0.784,0.479,1.302,0.479c0.739,0,1.06-0.31,1.06-0.699
			c0-1.083-2.43-0.417-2.43-1.877c0-0.581,0.451-1.083,1.455-1.083c0.446,0,0.908,0.13,1.224,0.35l-0.141,0.333
			c-0.338-0.22-0.733-0.327-1.083-0.327c-0.722,0-1.043,0.321-1.043,0.716c0,1.083,2.43,0.429,2.43,1.866
			c0,0.581-0.462,1.077-1.472,1.077C343.937,482.858,343.356,482.65,343.063,482.346z"/>
	</g>
</g>
<g>
</g>
<g>
	<path style="fill:#007CFF;" d="M25.057,250.532c-0.044-6.407,0.886-12.006,2.733-17.432c1.703-5.004,4.045-9.697,7.208-13.968
		c1.956-2.641,4.075-5.131,6.445-7.402c4.888-4.683,10.504-8.259,16.765-10.798c4.219-1.711,8.617-2.792,13.143-3.334
		c2.141-0.256,4.294-0.518,6.443-0.465c4.229,0.105,8.419,0.547,12.555,1.555c3.673,0.895,7.19,2.174,10.571,3.817
		c3.344,1.625,6.547,3.516,9.419,5.9c2.93,2.432,2.847,7.417-0.108,9.665c-2.321,1.766-5.862,1.504-7.937-0.067
		c-2.781-2.105-5.79-3.873-9.058-5.212c-2.696-1.105-5.461-1.877-8.292-2.465c-1.607-0.334-3.244-0.467-4.882-0.523
		c-1.164-0.04-2.333,0.047-3.496-0.01c-3.061-0.151-6.02,0.511-8.939,1.238c-2.164,0.539-4.29,1.338-6.327,2.256
		c-3.827,1.724-7.291,4.01-10.434,6.843c-2.787,2.512-5.121,5.339-7.129,8.482c-1.989,3.114-3.462,6.443-4.533,9.977
		c-0.769,2.536-1.256,5.125-1.505,7.739c-0.195,2.048-0.226,4.122-0.02,6.201c0.209,2.105,0.417,4.193,0.853,6.272
		c0.706,3.368,1.903,6.543,3.46,9.588c1.021,1.998,2.197,3.907,3.569,5.697c2.43,3.169,5.246,5.933,8.409,8.369
		c3.077,2.369,6.515,4.058,10.097,5.468c2.335,0.919,4.772,1.505,7.265,1.837c2.093,0.279,4.167,0.651,6.302,0.631
		c4.576-0.043,9.01-0.804,13.339-2.269c4.086-1.383,7.829-3.41,11.248-6.018c3.353-2.558,7.065-1.775,9.281,1.367
		c1.744,2.472,1.522,6.257-1.391,8.437c-3.606,2.697-7.408,5.09-11.565,6.814c-2.944,1.221-5.998,2.202-9.134,2.863
		c-4.107,0.867-8.25,1.403-12.457,1.27c-3.322-0.105-6.616-0.399-9.881-1.119c-3.678-0.81-7.276-1.844-10.709-3.379
		c-3.431-1.534-6.645-3.455-9.694-5.668c-4.122-2.991-7.659-6.571-10.778-10.565c-2.691-3.447-4.906-7.214-6.613-11.229
		c-0.921-2.166-1.699-4.412-2.318-6.716c-0.686-2.551-1.248-5.11-1.516-7.725C25.222,254.27,24.86,252.084,25.057,250.532z"/>
	<path style="fill:#002CB9;" d="M221.637,255.942c-2.332,0-4.665,0.013-6.997-0.008c-0.731-0.006-1.466-0.064-2.19-0.164
		c-1.048-0.145-2.162-1.269-2.335-2.319c-0.319-1.93-0.26-3.879-0.125-5.814c0.114-1.642,1.521-2.921,3.171-3.083
		c0.3-0.03,0.604-0.024,0.906-0.024c8.12-0.001,16.24,0.013,24.359-0.015c1.385-0.005,2.535,0.427,3.507,1.377
		c0.672,0.656,1.099,1.458,1.155,2.398c0.093,1.593,0.205,3.2-0.031,4.778c-0.167,1.114-0.226,2.234-0.308,3.346
		c-0.161,2.189-0.922,4.196-1.588,6.243c-0.655,2.016-1.589,3.912-2.614,5.741c-0.773,1.378-1.875,2.571-2.834,3.844
		c-1.129,1.498-2.571,2.634-4.102,3.703c-1.555,1.085-3.009,2.317-4.742,3.127c-3.315,1.549-6.587,3.155-10.293,3.695
		c-2.137,0.311-4.24,0.679-6.415,0.657c-2.161-0.022-4.293-0.242-6.406-0.622c-3.364-0.605-6.531-1.769-9.603-3.3
		c-3.416-1.702-6.331-4.055-8.851-6.806c-2.585-2.823-4.808-5.978-6.165-9.648c-0.448-1.211-0.89-2.413-1.261-3.654
		c-1.169-3.91-1.311-7.909-1.118-11.928c0.168-3.512,0.842-6.97,2.25-10.19c1.521-3.479,3.34-6.818,6.083-9.553
		c1.497-1.493,2.927-3.061,4.618-4.337c1.932-1.457,3.993-2.706,6.206-3.719c3.577-1.637,7.324-2.639,11.231-2.856
		c5.469-0.303,10.863,0.08,16.004,2.284c4.379,1.877,8.314,4.362,11.578,7.866c0.828,0.889,1.549,1.859,2.238,2.848
		c0.997,1.432,0.572,3.556-0.827,4.653c-1.054,0.826-2.229,1.454-3.39,2.099c-0.527,0.293-1.059,0.574-1.578,0.885
		c-1.535,0.921-3.337,0.482-4.444-0.925c-1.996-2.535-4.404-4.536-7.423-5.829c-2.37-1.015-4.802-1.726-7.349-1.856
		c-2.264-0.115-4.556-0.074-6.766,0.614c-0.164,0.051-0.322,0.154-0.487,0.165c-2.607,0.179-4.788,1.495-6.828,2.889
		c-2.988,2.042-5.325,4.727-6.79,8.127c-1.263,2.932-1.922,5.939-1.987,9.143c-0.055,2.715,0.323,5.325,1.118,7.889
		c0.371,1.194,0.911,2.341,1.571,3.402c2.659,4.273,6.236,7.496,11.043,9.153c4.16,1.434,8.396,1.78,12.733,0.673
		c3.369-0.86,6.381-2.375,9.081-4.512c2.888-2.286,4.824-5.25,5.906-8.771c0.076-0.247,0.122-0.503,0.175-0.757
		c0.112-0.543-0.136-0.829-0.664-0.877c-0.343-0.031-0.69-0.031-1.035-0.031C226.56,255.941,224.098,255.942,221.637,255.942z"/>
	<path style="fill:#002CB9;" d="M94.566,243.744c3.499,0.001,6.999-0.025,10.497,0.009c2.87,0.027,5.16,1.752,6.06,4.428
		c0.298,0.887,0.231,1.799,0.234,2.691c0.011,3.126-0.5,6.196-1.441,9.163c-0.806,2.543-1.883,4.983-3.294,7.277
		c-1.749,2.846-3.915,5.291-6.346,7.577c-1.556,1.462-3.311,2.607-4.982,3.885c-1.214,0.929-2.696,1.352-4.061,1.992
		c-2.191,1.026-4.49,1.751-6.854,2.272c-1.355,0.299-2.737,0.421-4.112,0.463c-3.587,0.11-7.186,0.03-10.657-0.951
		c-3.439-0.971-6.746-2.274-9.776-4.277c-2.063-1.364-3.862-3.019-5.795-4.525c-0.312-0.243-0.529-0.563-0.784-0.856
		c-0.79-0.907-1.484-1.889-2.289-2.792c-0.99-1.109-1.752-2.461-2.423-3.802c-0.44-0.881-0.843-1.801-1.305-2.669
		c-0.742-1.396-1.104-2.895-1.519-4.388c-0.243-0.873-0.496-1.743-0.728-2.619c-0.457-1.72-0.584-3.507-0.536-5.25
		c0.057-2.063-0.075-4.136,0.255-6.203c0.535-3.349,1.457-6.555,2.867-9.643c2.683-5.873,6.89-10.417,12.246-13.881
		c3.575-2.312,7.51-3.877,11.751-4.559c2.217-0.357,4.437-0.634,6.695-0.576c3.784,0.098,7.456,0.73,11.028,2.009
		c2.25,0.806,4.395,1.822,6.382,3.121c1.815,1.187,2.821,2.843,2.903,5.164c0.084,2.399-0.991,4.1-2.71,5.424
		c-1.357,1.046-3.003,1.479-4.758,0.922c-1.403-0.446-2.746-1.025-4.033-1.739c-1.902-1.056-3.948-1.781-6.083-2.061
		c-3.628-0.475-7.23-0.245-10.658,1.19c-2.517,1.054-4.899,2.414-6.84,4.322c-1.458,1.433-2.783,3.02-3.8,4.87
		c-1.767,3.217-2.786,6.641-2.756,10.256c0.027,3.195,0.7,6.338,2.196,9.245c2.338,4.544,5.807,7.908,10.471,9.975
		c1.85,0.82,3.812,1.292,5.853,1.557c2.273,0.295,4.489,0.124,6.688-0.299c3.685-0.709,6.885-2.443,9.686-4.937
		c2.23-1.985,3.878-4.385,5.157-7.059c0.13-0.272,0.24-0.555,0.338-0.841c0.388-1.136,0.29-1.193-0.92-1.183
		c-4.19,0.037-8.387,0.181-12.567-0.026c-2.625-0.129-4.793-1.439-5.768-4.104c-1.497-4.09,1.329-8.363,5.73-8.572
		c0.086-0.004,0.173-0.002,0.259-0.002C87.568,243.743,91.067,243.743,94.566,243.744z"/>
	<path style="fill:#002CB9;" d="M356.482,276.469c-1.239,1.094-2.32,1.937-3.393,2.789c-2.095,1.662-4.427,2.783-7.008,3.471
		c-1.499,0.399-2.967,0.835-4.54,0.912c-1.004,0.049-1.969-0.162-2.962-0.162c-4.142,0.001-7.746-1.538-11.223-3.703
		c-3.814-2.375-6.345-5.818-8.437-9.594c-1.351-2.437-2.06-5.184-2.566-7.967c-0.738-4.053-0.691-8.088,0.136-12.088
		c0.857-4.14,2.508-7.935,5.227-11.264c1.72-2.105,3.651-3.936,5.967-5.3c2.728-1.607,5.659-2.71,8.837-3.176
		c3.878-0.568,7.653-0.315,11.334,1.022c3.472,1.262,6.294,3.361,8.191,6.595c0.085,0.144,0.173,0.286,0.265,0.44
		c0.4-0.214,0.254-0.553,0.257-0.821c0.013-1.123-0.004-2.246-0.011-3.369c-0.013-2.082,1.016-3.321,3.055-3.412
		c2.155-0.096,4.321-0.095,6.477,0c1.941,0.085,2.992,1.273,2.992,3.191c0.006,15.162,0.006,30.325-0.001,45.487
		c-0.001,1.677-0.588,2.616-1.845,3.101c-0.244,0.094-0.481,0.164-0.752,0.144c-2.373-0.17-4.749-0.04-7.124-0.08
		c-1.597-0.027-2.561-0.869-2.753-2.479c-0.071-0.596-0.021-1.206-0.038-1.81C356.553,277.845,356.52,277.292,356.482,276.469z
		 M342.472,272.273c1.031-0.027,2.087,0.145,3.094-0.143c3.065-0.876,5.672-2.449,7.679-4.995c2.85-3.616,3.485-7.861,3.159-12.204
		c-0.199-2.659-0.955-5.323-2.589-7.611c-1.484-2.077-3.272-3.754-5.618-4.817c-1.717-0.778-3.498-1.04-5.384-1.13
		c-2.646-0.126-5.019,0.488-7.246,1.838c-1.45,0.879-2.615,2.035-3.702,3.355c-1.37,1.662-1.985,3.597-2.586,5.567
		c-0.544,1.783-0.652,3.632-0.544,5.479c0.07,1.199,0.079,2.424,0.45,3.583c0.619,1.934,1.316,3.846,2.527,5.504
		c1.526,2.09,3.448,3.706,5.826,4.778C339.121,272.19,340.764,272.396,342.472,272.273z"/>
	<path style="fill:#002CB9;" d="M249.714,248.76c0.162-2.831,0.558-5.764,1.381-8.645c0.692-2.424,1.711-4.697,2.902-6.902
		c1.766-3.271,4.193-6.022,6.955-8.464c5.103-4.511,11.072-7.067,17.856-7.786c1.899-0.201,3.79-0.223,5.686-0.2
		c6.164,0.074,11.788,1.89,16.944,5.258c3.331,2.176,6.111,4.894,8.421,8.116c1.065,1.486,0.834,3.249-0.727,4.265
		c-1.362,0.887-2.654,1.914-4.216,2.475c-0.318,0.114-0.632,0.302-0.881,0.53c-0.937,0.855-2.03,0.812-3.168,0.637
		c-0.522-0.08-0.866-0.391-1.114-0.807c-1.08-1.813-2.74-3.092-4.225-4.516c-1.094-1.049-2.583-1.539-3.93-2.209
		c-2.528-1.257-5.227-1.726-8.037-1.557c-0.817,0.049-1.612-0.135-2.445-0.076c-1.78,0.125-3.486,0.578-5.177,1.035
		c-2.263,0.612-4.261,1.816-6.147,3.209c-2.136,1.578-3.52,3.75-4.902,5.946c-1.676,2.664-2.213,5.604-2.619,8.679
		c-0.338,2.56-0.006,4.998,0.425,7.442c0.514,2.915,1.656,5.611,3.528,7.961c1.846,2.318,3.91,4.357,6.597,5.719
		c2.46,1.247,5.064,1.943,7.775,2.313c3.865,0.528,7.568-0.129,11.126-1.625c2.832-1.191,5.26-2.943,7.063-5.484
		c0.323-0.456,0.679-0.898,1.073-1.292c1.02-1.021,2.133-1.194,3.414-0.513c1.333,0.71,2.641,1.469,3.96,2.206
		c0.565,0.315,1.126,0.638,1.697,0.942c1.612,0.86,2.101,2.351,1.181,3.898c-1.713,2.88-3.901,5.311-6.649,7.286
		c-1.65,1.186-3.27,2.373-5.101,3.275c-2.795,1.377-5.63,2.587-8.782,2.872c-0.682,0.062-1.345,0.304-2.024,0.415
		c-4.198,0.681-8.361,0.204-12.462-0.638c-3.908-0.802-7.627-2.235-10.877-4.616c-1.976-1.448-3.87-3.012-5.523-4.853
		c-1.03-1.147-2.12-2.227-2.988-3.519c-1.545-2.299-2.85-4.701-3.84-7.299c-1.322-3.472-1.852-7.083-2.159-10.744
		C249.631,250.641,249.828,249.773,249.714,248.76z"/>
	<path style="fill:#002CB9;" d="M474.999,266.264c0,4.136,0.005,8.272-0.003,12.409c-0.002,1.094-0.24,2.113-0.863,3.056
		c-0.458,0.693-1.029,0.972-1.832,0.963c-1.728-0.021-3.456-0.005-5.184-0.002c-0.432,0.001-0.865-0.01-1.295,0.02
		c-2.164,0.151-3.216-0.796-3.218-2.968c-0.009-7.776-0.027-15.552,0.009-23.328c0.013-2.704-0.299-5.368-1.134-7.912
		c-0.841-2.562-2.454-4.605-4.901-5.952c-2.124-1.169-4.421-1.515-6.727-1.299c-2.659,0.249-5.064,1.221-6.916,3.379
		c-2.256,2.629-3.135,5.712-3.216,9.04c-0.208,8.594-0.047,17.191-0.094,25.787c-0.002,0.429-0.041,0.865-0.129,1.283
		c-0.266,1.265-0.941,1.856-2.214,1.964c-0.3,0.025-0.604-0.01-0.906-0.006c-2.158,0.028-4.317-0.1-6.475,0.08
		c-1.106,0.092-2.336-0.953-2.552-2.151c-0.114-0.635-0.186-1.287-0.18-1.931c0.021-2.158,0.034-4.318,0.058-6.474
		c0.018-1.629,0.056-3.272-0.025-4.908c-0.047-0.943,0.116-1.894,0.118-2.842c0.012-6.653,0.089-13.307-0.015-19.958
		c-0.122-7.81-0.145-15.619-0.148-23.429c-0.001-1.554-0.016-3.107,0.119-4.659c0.119-1.367,0.99-2.43,2.347-2.469
		c2.546-0.073,5.097-0.067,7.645-0.007c1.289,0.03,2.224,1.04,2.316,2.345c0.061,0.86,0.044,1.727,0.045,2.591
		c0.003,4.968,0.001,9.936,0.001,14.904c0,0.302-0.012,0.606,0.007,0.907c0.055,0.895,0.269,1.021,1.005,0.45
		c1.59-1.232,3.374-2.064,5.22-2.826c1.871-0.772,3.838-1.019,5.805-1.245c2.278-0.262,4.56-0.101,6.825,0.27
		c3.224,0.527,6.077,1.874,8.665,3.84c2.988,2.27,4.931,5.271,6.149,8.769c0.869,2.495,1.304,5.061,1.486,7.717
		c0.301,4.394,0.092,8.781,0.158,13.17c0.007,0.474,0.001,0.948,0.001,1.422C474.968,266.264,474.983,266.264,474.999,266.264z"/>
	<path style="fill:#002CB9;" d="M411.645,248.219c-1.037,0-2.074-0.004-3.11,0.001c-1.525,0.007-2.788-0.758-3.116-2.219
		c-0.657-2.928-2.853-4.006-5.359-4.817c-2.379-0.77-4.687-0.318-6.954,0.424c-2.145,0.702-3.147,2.466-2.755,4.658
		c0.161,0.901,0.753,1.526,1.428,2.091c1.326,1.108,2.921,1.663,4.529,2.155c3.257,0.997,6.567,1.833,9.789,2.929
		c3.113,1.059,6.082,2.466,8.56,4.727c1.679,1.531,2.784,3.455,3.427,5.565c1.08,3.545,0.996,7.118-0.805,10.438
		c-1.753,3.232-4.36,5.626-7.716,7.208c-2.212,1.043-4.55,1.599-6.928,2.045c-0.423,0.079-0.857,0.129-1.287,0.13
		c-2.022,0.005-4.044-0.012-6.066-0.021c-0.043,0-0.089,0.018-0.129,0.008c-2.329-0.599-4.725-0.951-6.971-1.864
		c-2.82-1.146-5.023-3.164-7.208-5.182c-1.71-1.579-2.701-3.627-3.377-5.83c-0.164-0.536-0.203-1.125-0.442-1.621
		c-0.772-1.607,0.747-3.443,2.396-3.709c0.254-0.041,0.516-0.051,0.775-0.051c2.074-0.004,4.147-0.021,6.221,0.003
		c1.737,0.02,2.791,0.808,3.384,2.455c0.994,2.765,3.155,4.102,5.858,4.728c1.919,0.444,3.855,0.354,5.788,0.008
		c1.581-0.283,2.959-0.926,4.028-2.152c1.415-1.624,0.987-4.123-0.816-5.285c-1.469-0.946-3.075-1.656-4.704-2.102
		c-1.654-0.453-3.285-1.013-4.971-1.381c-3.337-0.727-6.588-1.801-9.614-3.379c-3.695-1.926-6.459-4.767-7.462-8.956
		c-1.006-4.198-0.414-8.125,2.235-11.657c2.348-3.131,5.509-5.015,9.162-6.227c2.113-0.701,4.276-0.945,6.478-1.129
		c3.621-0.302,7.126,0.109,10.574,1.232c2.82,0.919,5.274,2.458,7.256,4.601c2.303,2.489,3.672,5.507,4.11,8.905
		c0.027,0.214,0.038,0.432,0.031,0.647c-0.053,1.565-0.922,2.512-2.481,2.586c-1.25,0.06-2.505,0.012-3.757,0.012
		C411.645,248.201,411.645,248.21,411.645,248.219z"/>
	<path style="fill:#6EBBF8;" d="M150.035,245.804c0.031,1.377,0.043,2.45,0.252,3.52c0.234,1.196-0.122,2.394-0.114,3.603
		c0.016,2.497-0.335,4.96-0.762,7.432c-0.298,1.725-0.558,3.481-0.811,5.221c-0.275,1.893-0.997,3.724-1.559,5.572
		c-0.412,1.354-0.876,2.693-1.324,4.036c-0.422,1.265-0.949,2.487-1.508,3.698c-0.703,1.523-1.406,3.042-2.193,4.527
		c-0.428,0.808-0.971,1.449-1.711,1.862c-1.482,0.829-3.053,1.389-4.792,0.793c-0.245-0.084-0.486-0.195-0.738-0.241
		c-2.686-0.488-4.635-3.899-4.191-6.274c0.189-1.012,0.331-1.972,0.841-2.929c1.275-2.396,2.389-4.905,3.166-7.493
		c0.896-2.984,1.717-6.001,2.208-9.11c0.71-4.498,1.011-9.009,0.733-13.533c-0.32-5.216-1.221-10.339-2.943-15.316
		c-1.015-2.934-2.228-5.768-3.503-8.587c-1.562-3.452,0.578-7.631,4.105-8.439c3.179-0.728,6.234,0.844,7.785,4.276
		c1.048,2.317,2.026,4.662,2.981,7.018c0.425,1.048,0.722,2.129,1.018,3.202c0.561,2.031,1.171,4.048,1.592,6.126
		c0.314,1.551,0.545,3.118,0.864,4.668c0.216,1.05,0.166,2.154,0.372,3.206C150.031,243.797,150.12,244.94,150.035,245.804z"/>
	<path style="fill:#6EBBF8;" d="M119.694,224.397c2.255-0.172,3.644,0.714,4.929,1.866c0.893,0.799,1.419,1.792,1.808,2.921
		c0.588,1.705,1.417,3.334,1.926,5.059c0.373,1.264,0.7,2.556,0.997,3.849c0.455,1.972,0.611,3.995,1.044,5.966
		c0.181,0.824-0.003,1.626,0.108,2.444c0.425,3.132,0.361,6.257-0.237,9.374c-0.15,0.781-0.002,1.611-0.209,2.404
		c-0.065,0.248-0.057,0.515-0.115,0.766c-0.763,3.311-1.47,6.639-2.612,9.846c-0.504,1.415-1.099,2.809-1.799,4.135
		c-0.325,0.615-0.948,1.114-1.524,1.549c-1.97,1.489-5.048,1.573-7.154,0.27c-2.412-1.492-3.866-5.044-2.349-8.038
		c1.211-2.39,1.948-4.957,2.559-7.567c0.434-1.852,0.885-3.708,0.914-5.602c0.045-2.918,0.407-5.844-0.229-8.758
		c-0.283-1.297-0.255-2.655-0.588-3.955c-0.739-2.882-1.744-5.671-2.909-8.407c-1.172-2.754,0.435-5.905,2.696-7.209
		C118.431,224.456,118.581,224.431,119.694,224.397z"/>
</g>
</svg>
