<?xml version="1.0" encoding="UTF-8"?>
<svg version="1.1" xmlns="http://www.w3.org/2000/svg" width="165" height="165">
<path d="M0 0 C0 1.65 0 3.3 0 5 C1.65 5.33 3.3 5.66 5 6 C5 4.35 5 2.7 5 1 C6.32 1 7.64 1 9 1 C9 2.65 9 4.3 9 6 C9.99 6 10.98 6 12 6 C12 7.32 12 8.64 12 10 C13.98 10 15.96 10 18 10 C18 8.68 18 7.36 18 6 C19.98 6 21.96 6 24 6 C24 4.02 24 2.04 24 0 C26.475 0.99 26.475 0.99 29 2 C29 3.65 29 5.3 29 7 C28.34 7.33 27.68 7.66 27 8 C26.34 7.67 25.68 7.34 25 7 C25 8.32 25 9.64 25 11 C23.02 11 21.04 11 19 11 C19 12.32 19 13.64 19 15 C20.98 15 22.96 15 25 15 C25 16.32 25 17.64 25 19 C26.32 19 27.64 19 29 19 C29 20.98 29 22.96 29 25 C27.35 25.33 25.7 25.66 24 26 C22.75453595 23.50907189 23.2232422 22.58919267 24 20 C22.35 20 20.7 20 19 20 C19 21.32 19 22.64 19 24 C19.99 24 20.98 24 22 24 C22 25.65 22 27.3 22 29 C22.99 29 23.98 29 25 29 C25 30.65 25 32.3 25 34 C23.68 34 22.36 34 21 34 C21 32.68 21 31.36 21 30 C20.34 30 19.68 30 19 30 C19 31.32 19 32.64 19 34 C16.69 34 14.38 34 12 34 C11.896875 33.360625 11.79375 32.72125 11.6875 32.0625 C11.460625 31.381875 11.23375 30.70125 11 30 C10.01 29.67 9.02 29.34 8 29 C8 27.68 8 26.36 8 25 C7.34 25 6.68 25 6 25 C6 27.97 6 30.94 6 34 C3.69 34 1.38 34 -1 34 C-1 32.35 -1 30.7 -1 29 C-0.01 29 0.98 29 2 29 C2 27.35 2 25.7 2 24 C2.99 24 3.98 24 5 24 C5 22.68 5 21.36 5 20 C4.01 20 3.02 20 2 20 C2 18.68 2 17.36 2 16 C1.01 16.33 0.02 16.66 -1 17 C-2.24546405 14.50907189 -1.7767578 13.58919267 -1 11 C-2.32 10.67 -3.64 10.34 -5 10 C-5 7.36 -5 4.72 -5 2 C-1.125 0 -1.125 0 0 0 Z M1 6 C0.67 7.32 0.34 8.64 0 10 C0.66 10 1.32 10 2 10 C1.67 8.68 1.34 7.36 1 6 Z M6 7 C6 7.99 6 8.98 6 10 C6.66 10 7.32 10 8 10 C8 9.01 8 8.02 8 7 C7.34 7 6.68 7 6 7 Z M3 11 C3 12.32 3 13.64 3 15 C3.66 15 4.32 15 5 15 C5 13.68 5 12.36 5 11 C4.34 11 3.68 11 3 11 Z M6 16 C6 16.99 6 17.98 6 19 C6.66 19 7.32 19 8 19 C8 18.01 8 17.02 8 16 C7.34 16 6.68 16 6 16 Z M17 16 C16.67 16.99 16.34 17.98 16 19 C16.66 19 17.32 19 18 19 C17.67 18.01 17.34 17.02 17 16 Z M9 20 C9 21.32 9 22.64 9 24 C9.99 24 10.98 24 12 24 C12 25.65 12 27.3 12 29 C13.98 29 15.96 29 18 29 C18 27.68 18 26.36 18 25 C17.01 25 16.02 25 15 25 C15 23.35 15 21.7 15 20 C13.02 20 11.04 20 9 20 Z " fill="#53BDE4" transform="translate(90,84)"/>
<path d="M0 0 C0.99016113 0.04310303 1.98032227 0.08620605 3.00048828 0.13061523 C4.82169189 0.22258179 4.82169189 0.22258179 6.6796875 0.31640625 C12.5578125 0.59484375 12.5578125 0.59484375 18.5546875 0.87890625 C18.5546875 12.42890625 18.5546875 23.97890625 18.5546875 35.87890625 C12.73665195 36.84857884 7.4187484 37.06251762 1.5546875 37.06640625 C0.58273438 37.07865234 -0.38921875 37.09089844 -1.390625 37.10351562 C-2.33679687 37.10544922 -3.28296875 37.10738281 -4.2578125 37.109375 C-5.10988281 37.11348389 -5.96195313 37.11759277 -6.83984375 37.12182617 C-9.4453125 36.87890625 -9.4453125 36.87890625 -15.4453125 34.87890625 C-15.7753125 23.65890625 -16.1053125 12.43890625 -16.4453125 0.87890625 C-5.1953125 -0.24609375 -5.1953125 -0.24609375 0 0 Z M-11.4453125 4.87890625 C-11.4453125 13.78890625 -11.4453125 22.69890625 -11.4453125 31.87890625 C-2.8653125 31.87890625 5.7146875 31.87890625 14.5546875 31.87890625 C14.5546875 22.96890625 14.5546875 14.05890625 14.5546875 4.87890625 C5.9746875 4.87890625 -2.6053125 4.87890625 -11.4453125 4.87890625 Z " fill="#677CA1" transform="translate(61.4453125,83.12109375)"/>
<path d="M0 0 C1.0374939 0.00303635 1.0374939 0.00303635 2.09594727 0.00613403 C2.80243408 0.00517731 3.5089209 0.00422058 4.23681641 0.00323486 C5.7331552 0.00255321 7.22949694 0.00440649 8.72583008 0.00857544 C11.02374884 0.01392396 13.32147213 0.00863003 15.61938477 0.00222778 C17.06990603 0.00288857 18.52042718 0.00416974 19.97094727 0.00613403 C20.66260986 0.0041098 21.35427246 0.00208557 22.06689453 0 C26.91849503 0.0239943 26.91849503 0.0239943 28.03344727 1.13894653 C28.12192469 3.6598873 28.14872028 6.15325546 28.13110352 8.67410278 C28.12968857 9.42735336 28.12827362 10.18060394 28.1268158 10.9566803 C28.12120102 13.37164213 28.1086461 15.78651254 28.09594727 18.20144653 C28.09093417 19.83490874 28.08637093 21.46837239 28.08227539 23.10183716 C28.0712268 27.11424238 28.05395233 31.12657894 28.03344727 35.13894653 C2.01448142 36.76628506 2.01448142 36.76628506 -5.96655273 35.13894653 C-7.44809081 32.17587039 -6.9932919 29.21557363 -6.88061523 25.97879028 C-6.85937592 25.27371841 -6.8381366 24.56864655 -6.81625366 23.84220886 C-6.76998957 22.35176453 -6.72106105 20.86140089 -6.66967773 19.37112427 C-6.5917525 17.08231416 -6.5246585 14.79336478 -6.45874023 12.50418091 C-6.41251438 11.05819647 -6.3656608 9.61223193 -6.31811523 8.16629028 C-6.29826569 7.47776474 -6.27841614 6.7892392 -6.25796509 6.07984924 C-6.04802688 0.33483226 -5.75409934 0.02845773 0 0 Z M-1.96655273 4.13894653 C-1.96655273 13.04894653 -1.96655273 21.95894653 -1.96655273 31.13894653 C6.61344727 31.13894653 15.19344727 31.13894653 24.03344727 31.13894653 C24.03344727 22.22894653 24.03344727 13.31894653 24.03344727 4.13894653 C15.45344727 4.13894653 6.87344727 4.13894653 -1.96655273 4.13894653 Z " fill="#5A709D" transform="translate(51.966552734375,45.861053466796875)"/>
<path d="M0 0 C1.0374939 0.00303635 1.0374939 0.00303635 2.09594727 0.00613403 C2.80243408 0.00517731 3.5089209 0.00422058 4.23681641 0.00323486 C5.7331552 0.00255321 7.22949694 0.00440649 8.72583008 0.00857544 C11.02374884 0.01392396 13.32147213 0.00863003 15.61938477 0.00222778 C17.06990603 0.00288857 18.52042718 0.00416974 19.97094727 0.00613403 C20.66260986 0.0041098 21.35427246 0.00208557 22.06689453 0 C26.91849503 0.0239943 26.91849503 0.0239943 28.03344727 1.13894653 C28.19325164 3.58503651 28.29274173 6.00625711 28.34985352 8.45535278 C28.37063461 9.18640732 28.39141571 9.91746185 28.41282654 10.67066956 C28.47839751 13.01416309 28.53724158 15.35777192 28.59594727 17.70144653 C28.63912535 19.28674508 28.6827394 20.87203182 28.72680664 22.45730591 C28.83408646 26.35106691 28.93533216 30.24494425 29.03344727 34.13894653 C25.52720296 35.30769463 22.38566066 35.2640892 18.74047852 35.23660278 C17.68143562 35.23448036 17.68143562 35.23448036 16.60099792 35.23231506 C14.34927101 35.22672417 12.09764406 35.21417341 9.84594727 35.20144653 C8.31795391 35.19643035 6.789959 35.19186765 5.26196289 35.18777466 C1.51908592 35.17675773 -2.22371647 35.15949941 -5.96655273 35.13894653 C-7.44809081 32.17587039 -6.9932919 29.21557363 -6.88061523 25.97879028 C-6.85937592 25.27371841 -6.8381366 24.56864655 -6.81625366 23.84220886 C-6.76998957 22.35176453 -6.72106105 20.86140089 -6.66967773 19.37112427 C-6.5917525 17.08231416 -6.5246585 14.79336478 -6.45874023 12.50418091 C-6.41251438 11.05819647 -6.3656608 9.61223193 -6.31811523 8.16629028 C-6.29826569 7.47776474 -6.27841614 6.7892392 -6.25796509 6.07984924 C-6.04802688 0.33483226 -5.75409934 0.02845773 0 0 Z M-1.96655273 4.13894653 C-1.96655273 13.04894653 -1.96655273 21.95894653 -1.96655273 31.13894653 C6.61344727 31.13894653 15.19344727 31.13894653 24.03344727 31.13894653 C24.03344727 22.22894653 24.03344727 13.31894653 24.03344727 4.13894653 C15.45344727 4.13894653 6.87344727 4.13894653 -1.96655273 4.13894653 Z " fill="#2F4C84" transform="translate(90.966552734375,45.861053466796875)"/>
<path d="M0 0 C1.34888732 0.00015905 2.69778075 0.00584927 4.04663086 0.01586914 C5.10991859 0.01799156 5.10991859 0.01799156 6.19468689 0.02015686 C8.46699173 0.02577096 10.73919936 0.03832576 13.01147461 0.05102539 C14.54858257 0.05603858 16.08569206 0.0606018 17.62280273 0.06469727 C21.39823103 0.07574497 25.17358632 0.09301898 28.94897461 0.11352539 C28.28897461 0.77352539 27.62897461 1.43352539 26.94897461 2.11352539 C26.67006314 5.12616264 26.67006314 5.12616264 26.75366211 8.65258789 C26.76010742 9.95454102 26.76655273 11.25649414 26.77319336 12.59790039 C26.78990532 13.97811135 26.80683522 15.35831968 26.82397461 16.73852539 C26.83400455 18.12653991 26.84313038 19.51456128 26.85131836 20.90258789 C26.87495598 24.30640565 26.90790594 27.70988045 26.94897461 31.11352539 C26.61897461 31.11352539 26.28897461 31.11352539 25.94897461 31.11352539 C25.94897461 22.20352539 25.94897461 13.29352539 25.94897461 4.11352539 C17.36897461 4.11352539 8.78897461 4.11352539 -0.05102539 4.11352539 C-0.05102539 13.02352539 -0.05102539 21.93352539 -0.05102539 31.11352539 C-2.03102539 32.10352539 -2.03102539 32.10352539 -4.05102539 33.11352539 C-4.07567931 28.57454834 -4.09386328 24.03560996 -4.10595703 19.49658203 C-4.11099679 17.95132773 -4.11782859 16.40607823 -4.12646484 14.86083984 C-4.13854615 12.6442751 -4.14425712 10.42777321 -4.14868164 8.21118164 C-4.15384293 7.51638199 -4.15900421 6.82158234 -4.1643219 6.10572815 C-4.16451816 4.44123209 -4.11291668 2.7768704 -4.05102539 1.11352539 C-3.05102539 0.11352539 -3.05102539 0.11352539 0 0 Z " fill="#667DA6" transform="translate(89.051025390625,45.886474609375)"/>
<path d="M0 0 C0.66 0.33 1.32 0.66 2 1 C2 7.93 2 14.86 2 22 C2.66 22.33 3.32 22.66 4 23 C4.99 23.66 5.98 24.32 7 25 C7 25.66 7 26.32 7 27 C14.26 26.67 21.52 26.34 29 26 C28.67 27.32 28.34 28.64 28 30 C20.19105239 34.30650514 10.2244036 31.99811975 2 30 C1.67 29.01 1.34 28.02 1 27 C0.34 27 -0.32 27 -1 27 C-2.02659877 21.89985733 -2.18330025 16.99079078 -2.1875 11.8125 C-2.19974609 11.00619141 -2.21199219 10.19988281 -2.22460938 9.36914062 C-2.22654297 8.59376953 -2.22847656 7.81839844 -2.23046875 7.01953125 C-2.23457764 6.31932861 -2.23868652 5.61912598 -2.24291992 4.89770508 C-2 3 -2 3 0 0 Z " fill="#627294" transform="translate(35,101)"/>
<path d="M0 0 C9.9 0 19.8 0 30 0 C30.33 10.89 30.66 21.78 31 33 C26.97114362 33.67147606 23.7522841 34.12758968 19.77734375 34.1328125 C18.82666016 34.13410156 17.87597656 34.13539062 16.89648438 34.13671875 C15.92001953 34.13285156 14.94355469 34.12898438 13.9375 34.125 C12.46700195 34.13080078 12.46700195 34.13080078 10.96679688 34.13671875 C10.01740234 34.13542969 9.06800781 34.13414063 8.08984375 34.1328125 C6.80388306 34.13112061 6.80388306 34.13112061 5.49194336 34.12939453 C2.9104978 33.99535258 0.51873591 33.5676104 -2 33 C-1.67 32.01 -1.34 31.02 -1 30 C8.57 30 18.14 30 28 30 C28 20.76 28 11.52 28 2 C23.38 2 18.76 2 14 2 C11.37291564 1.87026744 8.74656528 1.71400533 6.125 1.5 C4.95195313 1.4071875 3.77890625 1.314375 2.5703125 1.21875 C1.72210938 1.1465625 0.87390625 1.074375 0 1 C0 0.67 0 0.34 0 0 Z " fill="#415C91" transform="translate(49,86)"/>
<path d="M0 0 C1.07121094 -0.01224609 2.14242187 -0.02449219 3.24609375 -0.03710938 C4.26832031 -0.03904297 5.29054688 -0.04097656 6.34375 -0.04296875 C7.28412109 -0.04707764 8.22449219 -0.05118652 9.19335938 -0.05541992 C11.5 0.1875 11.5 0.1875 13.5 2.1875 C13.17 3.1775 12.84 4.1675 12.5 5.1875 C5.57 4.8575 -1.36 4.5275 -8.5 4.1875 C-8.83 4.8475 -9.16 5.5075 -9.5 6.1875 C-10.49 7.6725 -10.49 7.6725 -11.5 9.1875 C-12.16 9.1875 -12.82 9.1875 -13.5 9.1875 C-13.17 16.4475 -12.84 23.7075 -12.5 31.1875 C-14.975 30.1975 -14.975 30.1975 -17.5 29.1875 C-17.5271045 26.14577281 -17.54688964 23.10429003 -17.5625 20.0625 C-17.57087891 19.2065625 -17.57925781 18.350625 -17.58789062 17.46875 C-17.60538306 12.92071589 -17.43192358 8.66366836 -16.5 4.1875 C-15.51 3.8575 -14.52 3.5275 -13.5 3.1875 C-13.5 2.5275 -13.5 1.8675 -13.5 1.1875 C-9.49700128 -0.81399936 -4.40083269 0.00264791 0 0 Z " fill="#485F8D" transform="translate(50.5,32.8125)"/>
<path d="M0 0 C0.66 0.33 1.32 0.66 2 1 C2.22515501 4.95756644 2.42727348 8.91597588 2.625 12.875 C2.68945312 14.00292969 2.75390625 15.13085938 2.8203125 16.29296875 C2.89765625 17.90751953 2.89765625 17.90751953 2.9765625 19.5546875 C3.02893066 20.54968262 3.08129883 21.54467773 3.13525391 22.56982422 C2.94960159 25.90553396 1.30248687 26.69751313 -1 29 C-2.31647119 29.69937532 -3.65022151 30.36729133 -5 31 C-5.66 31.33 -6.32 31.66 -7 32 C-9.45104466 32.12472772 -11.86131348 32.18516331 -14.3125 32.1875 C-16.28669922 32.20876953 -16.28669922 32.20876953 -18.30078125 32.23046875 C-21.76609523 32.01457274 -24.02598822 31.76878374 -27 30 C-27.33 28.68 -27.66 27.36 -28 26 C-20.74 26.33 -13.48 26.66 -6 27 C-5.34 25.68 -4.68 24.36 -4 23 C-3.01 22.67 -2.02 22.34 -1 22 C-1.00785522 21.05362671 -1.00785522 21.05362671 -1.01586914 20.08813477 C-1.03657826 17.24626653 -1.04964066 14.40441412 -1.0625 11.5625 C-1.07087891 10.56927734 -1.07925781 9.57605469 -1.08789062 8.55273438 C-1.09272461 7.13637695 -1.09272461 7.13637695 -1.09765625 5.69140625 C-1.10551147 4.37958374 -1.10551147 4.37958374 -1.11352539 3.04125977 C-1 1 -1 1 0 0 Z " fill="#1F3A70" transform="translate(129,101)"/>
<path d="M0 0 C1.27875 0.00257812 2.5575 0.00515625 3.875 0.0078125 C5.15375 0.00523438 6.4325 0.00265625 7.75 0 C10.875 0.1328125 10.875 0.1328125 11.875 1.1328125 C11.94813567 3.66330652 11.96747527 6.16586087 11.9375 8.6953125 C11.93298828 9.40623047 11.92847656 10.11714844 11.92382812 10.84960938 C11.91200864 12.61071263 11.89407263 14.37177286 11.875 16.1328125 C8.17428713 17.87001764 5.67522026 18.32355843 1.625 17.8203125 C0.75359375 17.72105469 -0.1178125 17.62179688 -1.015625 17.51953125 C-3.125 17.1328125 -3.125 17.1328125 -4.125 16.1328125 C-4.22475032 13.62145146 -4.26382183 11.14377835 -4.25 8.6328125 C-4.25386719 7.93027344 -4.25773437 7.22773437 -4.26171875 6.50390625 C-4.24953513 0.18060524 -4.24953513 0.18060524 0 0 Z M-1.125 4.1328125 C-1.125 7.1028125 -1.125 10.0728125 -1.125 13.1328125 C1.845 13.1328125 4.815 13.1328125 7.875 13.1328125 C7.875 10.1628125 7.875 7.1928125 7.875 4.1328125 C4.905 4.1328125 1.935 4.1328125 -1.125 4.1328125 Z " fill="#32508A" transform="translate(59.125,54.8671875)"/>
<path d="M0 0 C1.27875 0.00257812 2.5575 0.00515625 3.875 0.0078125 C5.15375 0.00523438 6.4325 0.00265625 7.75 0 C10.875 0.1328125 10.875 0.1328125 11.875 1.1328125 C11.94813567 3.66330652 11.96747527 6.16586087 11.9375 8.6953125 C11.93298828 9.40623047 11.92847656 10.11714844 11.92382812 10.84960938 C11.91200864 12.61071263 11.89407263 14.37177286 11.875 16.1328125 C8.01908016 17.58924532 5.15967355 18.39964028 1.0625 17.8203125 C0.29292969 17.72105469 -0.47664063 17.62179688 -1.26953125 17.51953125 C-3.125 17.1328125 -3.125 17.1328125 -4.125 16.1328125 C-4.22475032 13.62145146 -4.26382183 11.14377835 -4.25 8.6328125 C-4.25386719 7.93027344 -4.25773437 7.22773437 -4.26171875 6.50390625 C-4.24953513 0.18060524 -4.24953513 0.18060524 0 0 Z M-0.125 4.1328125 C0.205 6.7728125 0.535 9.4128125 0.875 12.1328125 C-0.115 12.6278125 -0.115 12.6278125 -1.125 13.1328125 C2.175 13.1328125 5.475 13.1328125 8.875 13.1328125 C8.875 10.1628125 8.875 7.1928125 8.875 4.1328125 C5.905 4.1328125 2.935 4.1328125 -0.125 4.1328125 Z " fill="#6B81A7" transform="translate(98.125,54.8671875)"/>
<path d="M0 0 C3.79160297 -0.05786668 7.58309311 -0.09355054 11.375 -0.125 C12.45523438 -0.14175781 13.53546875 -0.15851562 14.6484375 -0.17578125 C15.6796875 -0.18222656 16.7109375 -0.18867187 17.7734375 -0.1953125 C19.20308838 -0.21102295 19.20308838 -0.21102295 20.66162109 -0.22705078 C23.87649462 0.08510545 24.76657909 1.76657909 27 4 C29.27492349 7.41238523 29.19555565 8.36044265 28.9765625 12.32421875 C28.925 13.35224609 28.8734375 14.38027344 28.8203125 15.43945312 C28.75585938 16.51130859 28.69140625 17.58316406 28.625 18.6875 C28.56828125 19.77095703 28.5115625 20.85441406 28.453125 21.97070312 C28.31160446 24.64780007 28.16018849 27.32396576 28 30 C27.01 30 26.02 30 25 30 C24.98598145 29.12263184 24.98598145 29.12263184 24.97167969 28.22753906 C24.91786721 25.5675142 24.83424551 22.90922778 24.75 20.25 C24.73582031 19.32960938 24.72164062 18.40921875 24.70703125 17.4609375 C24.61105073 12.03844989 24.61105073 12.03844989 21.953125 7.484375 C21.30859375 6.99453125 20.6640625 6.5046875 20 6 C20 5.34 20 4.68 20 4 C12.74 4 5.48 4 -2 4 C-1.34 2.68 -0.68 1.36 0 0 Z " fill="#274580" transform="translate(103,33)"/>
<path d="M0 0 C1.27875 0.00257812 2.5575 0.00515625 3.875 0.0078125 C5.15375 0.00523438 6.4325 0.00265625 7.75 0 C10.875 0.1328125 10.875 0.1328125 11.875 1.1328125 C11.97475032 3.64417354 12.01382183 6.12184665 12 8.6328125 C12.00580078 9.68662109 12.00580078 9.68662109 12.01171875 10.76171875 C12.00161378 16.00619872 12.00161378 16.00619872 10.875 17.1328125 C8.54339945 17.23190552 6.20870058 17.26251754 3.875 17.2578125 C2.59625 17.26039062 1.3175 17.26296875 0 17.265625 C-3.125 17.1328125 -3.125 17.1328125 -4.125 16.1328125 C-4.22475032 13.62145146 -4.26382183 11.14377835 -4.25 8.6328125 C-4.25386719 7.93027344 -4.25773437 7.22773437 -4.26171875 6.50390625 C-4.24953513 0.18060524 -4.24953513 0.18060524 0 0 Z M-1.125 4.1328125 C-0.939375 5.0609375 -0.75375 5.9890625 -0.5625 6.9453125 C-0.125 10.1328125 -0.125 10.1328125 -1.125 13.1328125 C1.845 13.1328125 4.815 13.1328125 7.875 13.1328125 C7.875 10.1628125 7.875 7.1928125 7.875 4.1328125 C4.905 4.1328125 1.935 4.1328125 -1.125 4.1328125 Z " fill="#657CA6" transform="translate(59.125,92.8671875)"/>
<path d="M0 0 C0 1.65 0 3.3 0 5 C1.65 5.33 3.3 5.66 5 6 C5 4.35 5 2.7 5 1 C6.32 1 7.64 1 9 1 C9 4.3 9 7.6 9 11 C8.01 11 7.02 11 6 11 C6 13.64 6 16.28 6 19 C6.66 19 7.32 19 8 19 C8.33 17.68 8.66 16.36 9 15 C9 17.97 9 20.94 9 24 C8.01 24 7.02 24 6 24 C5.67 22.68 5.34 21.36 5 20 C4.01 20 3.02 20 2 20 C2 18.68 2 17.36 2 16 C1.01 16.33 0.02 16.66 -1 17 C-2.24546405 14.50907189 -1.7767578 13.58919267 -1 11 C-2.32 10.67 -3.64 10.34 -5 10 C-5 7.36 -5 4.72 -5 2 C-1.125 0 -1.125 0 0 0 Z M1 6 C0.67 7.32 0.34 8.64 0 10 C0.66 10 1.32 10 2 10 C1.67 8.68 1.34 7.36 1 6 Z M6 7 C6 7.99 6 8.98 6 10 C6.66 10 7.32 10 8 10 C8 9.01 8 8.02 8 7 C7.34 7 6.68 7 6 7 Z M3 11 C3 12.32 3 13.64 3 15 C3.66 15 4.32 15 5 15 C5 13.68 5 12.36 5 11 C4.34 11 3.68 11 3 11 Z " fill="#59BBE0" transform="translate(90,84)"/>
<path d="M0 0 C0.33 0 0.66 0 1 0 C1 11.22 1 22.44 1 34 C-22.24601367 35.33257403 -22.24601367 35.33257403 -31 34 C-30.34 33.01 -29.68 32.02 -29 31 C-26.20263672 30.56762695 -26.20263672 30.56762695 -22.6796875 30.48828125 C-20.98175049 30.43861206 -20.98175049 30.43861206 -19.24951172 30.38793945 C-17.80592285 30.36304443 -16.36233398 30.33814941 -14.875 30.3125 C-10.29625 30.209375 -5.7175 30.10625 -1 30 C-0.67 20.1 -0.34 10.2 0 0 Z " fill="#7C90B2" transform="translate(79,47)"/>
<path d="M0 0 C0.99 0 1.98 0 3 0 C3 1.65 3 3.3 3 5 C4.98 5 6.96 5 9 5 C9 6.65 9 8.3 9 10 C8.34 10 7.68 10 7 10 C6.67 11.32 6.34 12.64 6 14 C4.02 14 2.04 14 0 14 C-0.33 12.68 -0.66 11.36 -1 10 C-1.66 10 -2.32 10 -3 10 C-3 8.35 -3 6.7 -3 5 C-2.01 5 -1.02 5 0 5 C0 3.35 0 1.7 0 0 Z " fill="#0E9AD7" transform="translate(99,90)"/>
<path d="M0 0 C0.33 0 0.66 0 1 0 C1 8.91 1 17.82 1 27 C10.24 27 19.48 27 29 27 C29 27.99 29 28.98 29 30 C13.655 30.495 13.655 30.495 -2 31 C-2.33 30.34 -2.66 29.68 -3 29 C-2.34 29 -1.68 29 -1 29 C-0.67 19.43 -0.34 9.86 0 0 Z " fill="#123270" transform="translate(48,50)"/>
<path d="M0 0 C4.95 0.33 9.9 0.66 15 1 C15 5.29 15 9.58 15 14 C14.34 14 13.68 14 13 14 C13 10.37 13 6.74 13 3 C9.7 3 6.4 3 3 3 C3.556875 4.3303125 3.556875 4.3303125 4.125 5.6875 C5 9 5 9 4.3125 11.8125 C3 14 3 14 0 15 C0 10.05 0 5.1 0 0 Z " fill="#3C588D" transform="translate(55,94)"/>
<path d="M0 0 C3.29159316 -0.05790353 6.58305603 -0.09356261 9.875 -0.125 C10.81214844 -0.14175781 11.74929687 -0.15851562 12.71484375 -0.17578125 C13.61074219 -0.18222656 14.50664063 -0.18867187 15.4296875 -0.1953125 C16.25710449 -0.20578613 17.08452148 -0.21625977 17.93701172 -0.22705078 C20 0 20 0 22 2 C20 4 20 4 17.75341797 4.22705078 C16.84221191 4.21657715 15.93100586 4.20610352 14.9921875 4.1953125 C13.51298828 4.18564453 13.51298828 4.18564453 12.00390625 4.17578125 C10.45509766 4.15064453 10.45509766 4.15064453 8.875 4.125 C7.83472656 4.11597656 6.79445313 4.10695313 5.72265625 4.09765625 C3.14820908 4.07403747 0.57421788 4.04110149 -2 4 C-1.34 2.68 -0.68 1.36 0 0 Z " fill="#526B9B" transform="translate(103,33)"/>
<path d="M0 0 C0.66 0.33 1.32 0.66 2 1 C2.05802698 4.43742918 2.09360486 7.87473253 2.125 11.3125 C2.15013672 12.77719727 2.15013672 12.77719727 2.17578125 14.27148438 C2.18222656 15.20927734 2.18867187 16.14707031 2.1953125 17.11328125 C2.20578613 17.97735596 2.21625977 18.84143066 2.22705078 19.73168945 C2 22 2 22 0 25 C-0.66 24.67 -1.32 24.34 -2 24 C-2.05802698 20.56257082 -2.09360486 17.12526747 -2.125 13.6875 C-2.14175781 12.71103516 -2.15851562 11.73457031 -2.17578125 10.72851562 C-2.18222656 9.79072266 -2.18867187 8.85292969 -2.1953125 7.88671875 C-2.20578613 7.02264404 -2.21625977 6.15856934 -2.22705078 5.26831055 C-2 3 -2 3 0 0 Z " fill="#516896" transform="translate(35,101)"/>
<path d="M0 0 C7.26 0.33 14.52 0.66 22 1 C21.67 2.65 21.34 4.3 21 6 C18.60385874 6.05425226 16.20896147 6.09379027 13.8125 6.125 C12.80219727 6.15013672 12.80219727 6.15013672 11.77148438 6.17578125 C7.7596845 6.21492076 4.48560888 6.08742678 1 4 C0.67 2.68 0.34 1.36 0 0 Z " fill="#7486A9" transform="translate(101,127)"/>
<path d="M0 0 C4.62 0 9.24 0 14 0 C14 4.95 14 9.9 14 15 C9.71 14.34 5.42 13.68 1 13 C1 12.67 1 12.34 1 12 C4.3 12 7.6 12 11 12 C11 8.7 11 5.4 11 2 C7.7 2 4.4 2 1 2 C0.67 1.34 0.34 0.68 0 0 Z " fill="#244583" transform="translate(96,56)"/>
<path d="M0 0 C3.3 0 6.6 0 10 0 C10.33 2.97 10.66 5.94 11 9 C11.33 9 11.66 9 12 9 C12 10.65 12 12.3 12 14 C2.58997722 15.33257403 2.58997722 15.33257403 -2 14 C-2 13.34 -2 12.68 -2 12 C1.42932071 10.28533964 5.21716065 10.94595944 9 11 C8.67 8.03 8.34 5.06 8 2 C5.69 2 3.38 2 1 2 C0.67 1.34 0.34 0.68 0 0 Z " fill="#778CAE" transform="translate(58,58)"/>
<path d="M0 0 C0.89267578 0.00322266 1.78535156 0.00644531 2.70507812 0.00976562 C4.09823242 0.02233398 4.09823242 0.02233398 5.51953125 0.03515625 C6.45990234 0.03966797 7.40027344 0.04417969 8.36914062 0.04882812 C10.69016837 0.06060999 13.01106769 0.07706067 15.33203125 0.09765625 C15.66203125 1.41765625 15.99203125 2.73765625 16.33203125 4.09765625 C8.41203125 3.76765625 0.49203125 3.43765625 -7.66796875 3.09765625 C-7.66796875 2.43765625 -7.66796875 1.77765625 -7.66796875 1.09765625 C-4.78531726 0.13677242 -2.99134604 -0.01905316 0 0 Z " fill="#274580" transform="translate(47.66796875,33.90234375)"/>
<path d="M0 0 C1.98 0 3.96 0 6 0 C6 1.32 6 2.64 6 4 C7.32 4 8.64 4 10 4 C10 5.98 10 7.96 10 10 C8.35 10.33 6.7 10.66 5 11 C3.75453595 8.50907189 4.2232422 7.58919267 5 5 C3.35 5 1.7 5 0 5 C0 3.35 0 1.7 0 0 Z " fill="#63B6D9" transform="translate(109,99)"/>
<path d="M0 0 C2.475 0.99 2.475 0.99 5 2 C5 3.65 5 5.3 5 7 C4.01 7.495 4.01 7.495 3 8 C2.34 7.67 1.68 7.34 1 7 C1 8.32 1 9.64 1 11 C-1.97 10.505 -1.97 10.505 -5 10 C-5 8.68 -5 7.36 -5 6 C-3.35 6 -1.7 6 0 6 C0 4.02 0 2.04 0 0 Z " fill="#66B8D9" transform="translate(114,84)"/>
<path d="M0 0 C0 1.65 0 3.3 0 5 C0.66 5.33 1.32 5.66 2 6 C1.34 7.32 0.68 8.64 0 10 C0.66 10.33 1.32 10.66 2 11 C0.00045254 11.04254356 -2.00041636 11.04080783 -4 11 C-5 10 -5 10 -5.09765625 8.15234375 C-5.06510417 6.1015625 -5.03255208 4.05078125 -5 2 C-1.125 0 -1.125 0 0 0 Z " fill="#64B7DB" transform="translate(90,84)"/>
<path d="M0 0 C0.33 0 0.66 0 1 0 C1.33 10.89 1.66 21.78 2 33 C-1.47325181 34.1577506 -4.36067448 34.06866652 -8 34 C-8 33.67 -8 33.34 -8 33 C-6.35 33 -4.7 33 -3 33 C-0.8015636 29.43621889 -0.69489531 26.40602194 -0.5859375 22.265625 C-0.52792969 20.32236328 -0.52792969 20.32236328 -0.46875 18.33984375 C-0.43729733 16.97656716 -0.40604993 15.61328582 -0.375 14.25 C-0.33679531 12.87106972 -0.29774213 11.49216266 -0.2578125 10.11328125 C-0.16351996 6.74232282 -0.0779178 3.37137022 0 0 Z " fill="#466290" transform="translate(118,47)"/>
<path d="M0 0 C0.66 1.32 1.32 2.64 2 4 C2.33 4.33 2.66 4.66 3 5 C3.15349136 7.47357237 3.23159885 9.90004519 3.25 12.375 C3.270625 13.06078125 3.29125 13.7465625 3.3125 14.453125 C3.328125 16.4609375 3.328125 16.4609375 3 20 C2.01 20.99 1.02 21.98 0 23 C0 15.41 0 7.82 0 0 Z " fill="#FFFFFF" transform="translate(81,53)"/>
<path d="M0 0 C0.66 0 1.32 0 2 0 C1.625 1.9375 1.625 1.9375 1 4 C-2.38825967 5.69412983 -6.17455077 4.89887151 -9.875 4.6875 C-10.69097656 4.65205078 -11.50695313 4.61660156 -12.34765625 4.58007812 C-13.53294922 4.51530273 -13.53294922 4.51530273 -14.7421875 4.44921875 C-15.4626123 4.41143311 -16.18303711 4.37364746 -16.92529297 4.3347168 C-19 4 -19 4 -23 2 C-15.41 1.67 -7.82 1.34 0 1 C0 0.67 0 0.34 0 0 Z " fill="#183A75" transform="translate(62,127)"/>
<path d="M0 0 C0.99 0 1.98 0 3 0 C3 1.32 3 2.64 3 4 C4.98 4 6.96 4 9 4 C9 5.65 9 7.3 9 9 C7.02 9 5.04 9 3 9 C2.67 7.68 2.34 6.36 2 5 C1.34 5 0.68 5 0 5 C0 3.35 0 1.7 0 0 Z " fill="#23A4DA" transform="translate(99,109)"/>
<path d="M0 0 C1.03125 0.00322266 2.0625 0.00644531 3.125 0.00976562 C4.74535156 0.02233398 4.74535156 0.02233398 6.3984375 0.03515625 C8.03039062 0.04192383 8.03039062 0.04192383 9.6953125 0.04882812 C12.38807539 0.06063849 15.08072938 0.07710847 17.7734375 0.09765625 C17.7734375 0.42765625 17.7734375 0.75765625 17.7734375 1.09765625 C6.8834375 1.59265625 6.8834375 1.59265625 -4.2265625 2.09765625 C-4.2265625 2.75765625 -4.2265625 3.41765625 -4.2265625 4.09765625 C-3.5665625 4.09765625 -2.9065625 4.09765625 -2.2265625 4.09765625 C-2.5565625 4.75765625 -2.8865625 5.41765625 -3.2265625 6.09765625 C-4.2165625 6.42765625 -5.2065625 6.75765625 -6.2265625 7.09765625 C-6.2265625 6.43765625 -6.2265625 5.77765625 -6.2265625 5.09765625 C-6.8865625 4.76765625 -7.5465625 4.43765625 -8.2265625 4.09765625 C-7.8965625 3.10765625 -7.5665625 2.11765625 -7.2265625 1.09765625 C-4.66933021 -0.1809599 -2.85919148 -0.01570984 0 0 Z " fill="#8090A9" transform="translate(44.2265625,32.90234375)"/>
<path d="M0 0 C1.93166016 0.01740234 1.93166016 0.01740234 3.90234375 0.03515625 C5.19269531 0.04417969 6.48304687 0.05320313 7.8125 0.0625 C8.81152344 0.07410156 9.81054688 0.08570313 10.83984375 0.09765625 C10.83984375 0.42765625 10.83984375 0.75765625 10.83984375 1.09765625 C4.89984375 1.59265625 4.89984375 1.59265625 -1.16015625 2.09765625 C-1.28390625 3.85078125 -1.40765625 5.60390625 -1.53515625 7.41015625 C-1.80738286 11.26669986 -1.97021377 12.81274252 -4.16015625 16.09765625 C-4.1870072 13.61841824 -4.20692172 11.13946785 -4.22265625 8.66015625 C-4.23522461 7.59958008 -4.23522461 7.59958008 -4.24804688 6.51757812 C-4.25669213 4.71072066 -4.21235636 2.90378022 -4.16015625 1.09765625 C-3.16015625 0.09765625 -3.16015625 0.09765625 0 0 Z " fill="#4B6394" transform="translate(98.16015625,54.90234375)"/>
<path d="M0 0 C0.33 0.66 0.66 1.32 1 2 C1.99 2 2.98 2 4 2 C4.33 2.99 4.66 3.98 5 5 C-0.10298771 6.10048457 -4.72081849 5.94251169 -9.875 5.5625 C-10.65875 5.51029297 -11.4425 5.45808594 -12.25 5.40429688 C-14.1670912 5.27571149 -16.08361503 5.13871383 -18 5 C-18 4.67 -18 4.34 -18 4 C-9.585 3.505 -9.585 3.505 -1 3 C-0.67 2.01 -0.34 1.02 0 0 Z " fill="#153164" transform="translate(123,126)"/>
<path d="M0 0 C3.63 0 7.26 0 11 0 C11 4.29 11 8.58 11 13 C10.34 13 9.68 13 9 13 C8.67 9.37 8.34 5.74 8 2 C5.36 1.67 2.72 1.34 0 1 C0 0.67 0 0.34 0 0 Z " fill="#193C7A" transform="translate(59,95)"/>
<path d="M0 0 C2.29013653 3.4352048 2.17842973 4.985331 2 9 C4.64 9.33 7.28 9.66 10 10 C10 10.33 10 10.66 10 11 C9.38511719 11.06058594 8.77023438 11.12117188 8.13671875 11.18359375 C6.92435547 11.30927734 6.92435547 11.30927734 5.6875 11.4375 C4.88699219 11.51871094 4.08648437 11.59992188 3.26171875 11.68359375 C0.83912821 11.95265693 0.83912821 11.95265693 -2 13 C-2 11.68 -2 10.36 -2 9 C-1.34 9 -0.68 9 0 9 C0 6.03 0 3.06 0 0 Z " fill="#4C6796" transform="translate(57,58)"/>
<path d="M0 0 C0.66 0 1.32 0 2 0 C2 2.64 2 5.28 2 8 C0.02 8 -1.96 8 -4 8 C-4 6.68 -4 5.36 -4 4 C-2.68 4 -1.36 4 0 4 C0 2.68 0 1.36 0 0 Z " fill="#15A1DE" transform="translate(93,109)"/>
<path d="M0 0 C0.12375 0.639375 0.2475 1.27875 0.375 1.9375 C0.684375 2.9584375 0.684375 2.9584375 1 4 C1.66 4.33 2.32 4.66 3 5 C2.34 5 1.68 5 1 5 C1 8.3 1 11.6 1 15 C-0.32 14.67 -1.64 14.34 -3 14 C-3 12.35 -3 10.7 -3 9 C-2.34 9.33 -1.68 9.66 -1 10 C-0.67 10.99 -0.34 11.98 0 13 C0 10.36 0 7.72 0 5 C-1.98 5 -3.96 5 -6 5 C-6 4.67 -6 4.34 -6 4 C-4.02 4 -2.04 4 0 4 C0 2.68 0 1.36 0 0 Z " fill="#95D7EB" transform="translate(108,90)"/>
<path d="M0 0 C3.26045222 2.17363482 4.82636518 3.73954778 7 7 C0.25 7.125 0.25 7.125 -2 6 C-1.49396008 3.83125748 -1.00016187 2.00032373 0 0 Z " fill="#293E63" transform="translate(125,33)"/>
<path d="M0 0 C0.33 1.32 0.66 2.64 1 4 C2.98 4 4.96 4 7 4 C7 5.65 7 7.3 7 9 C5.68 9 4.36 9 3 9 C3 7.68 3 6.36 3 5 C2.34 5 1.68 5 1 5 C0.67 6.32 0.34 7.64 0 9 C0 6.03 0 3.06 0 0 Z " fill="#56BADF" transform="translate(108,109)"/>
<path d="M0 0 C1.98 0 3.96 0 6 0 C6 1.98 6 3.96 6 6 C4.35 6 2.7 6 1 6 C0 1.125 0 1.125 0 0 Z " fill="#6DB8D9" transform="translate(85,103)"/>
<path d="M0 0 C0.99 0 1.98 0 3 0 C3 1.32 3 2.64 3 4 C2.34 4 1.68 4 1 4 C0.67 5.65 0.34 7.3 0 9 C-0.99 9 -1.98 9 -3 9 C-3 7.68 -3 6.36 -3 5 C-2.01 5 -1.02 5 0 5 C0 3.35 0 1.7 0 0 Z " fill="#28A5DA" transform="translate(92,90)"/>
<path d="M0 0 C2.97 0.495 2.97 0.495 6 1 C6 2.32 6 3.64 6 5 C3.03 4.505 3.03 4.505 0 4 C0 2.68 0 1.36 0 0 Z " fill="#19A3DD" transform="translate(109,90)"/>
<path d="M0 0 C1.98 0 3.96 0 6 0 C5.67 1.32 5.34 2.64 5 4 C3.35 4.33 1.7 4.66 0 5 C0 3.35 0 1.7 0 0 Z " fill="#1BA4DC" transform="translate(109,99)"/>
<path d="M0 0 C2 2 2 2 2.13525391 3.87939453 C2.08288574 4.62302246 2.03051758 5.36665039 1.9765625 6.1328125 C1.89921875 7.34130859 1.89921875 7.34130859 1.8203125 8.57421875 C1.75585938 9.41597656 1.69140625 10.25773437 1.625 11.125 C1.56828125 11.97449219 1.5115625 12.82398437 1.453125 13.69921875 C1.31149023 15.8001345 1.15695674 17.90017334 1 20 C0.67 20 0.34 20 0 20 C-0.19594676 16.85463232 -0.3803401 13.70869386 -0.5625 10.5625 C-0.61857422 9.66466797 -0.67464844 8.76683594 -0.73242188 7.84179688 C-0.78076172 6.98779297 -0.82910156 6.13378906 -0.87890625 5.25390625 C-0.9260376 4.46314697 -0.97316895 3.6723877 -1.02172852 2.85766602 C-1 1 -1 1 0 0 Z " fill="#32528B" transform="translate(129,101)"/>
<path d="M0 0 C0.99 0.99 1.98 1.98 3 3 C1 5 1 5 -0.9453125 5.1953125 C-2.96354167 5.13020833 -4.98177083 5.06510417 -7 5 C-7 4.67 -7 4.34 -7 4 C-5.35 4 -3.7 4 -2 4 C-1.34 2.68 -0.68 1.36 0 0 Z " fill="#6B7D9E" transform="translate(117,76)"/>
<path d="M0 0 C0.33 0 0.66 0 1 0 C1 4.95 1 9.9 1 15 C0.67 15 0.34 15 0 15 C0 10.05 0 5.1 0 0 Z " fill="#FFFFFF" transform="translate(132,107)"/>
<path d="M0 0 C0.33 0 0.66 0 1 0 C1 4.95 1 9.9 1 15 C0.67 15 0.34 15 0 15 C0 10.05 0 5.1 0 0 Z " fill="#FFFFFF" transform="translate(38,44)"/>
<path d="M0 0 C0.33 0 0.66 0 1 0 C1 4.95 1 9.9 1 15 C0.67 15 0.34 15 0 15 C0 10.05 0 5.1 0 0 Z " fill="#FFFFFF" transform="translate(132,43)"/>
<path d="M0 0 C0.33 0 0.66 0 1 0 C1 3.96 1 7.92 1 12 C0.67 12 0.34 12 0 12 C0 8.04 0 4.08 0 0 Z " fill="#FFFFFF" transform="translate(38,108)"/>
<path d="M0 0 C0.33 0 0.66 0 1 0 C1 3.63 1 7.26 1 11 C0.67 11 0.34 11 0 11 C0 7.37 0 3.74 0 0 Z " fill="#FFFFFF" transform="translate(81,97)"/>
<path d="M0 0 C0.33 0 0.66 0 1 0 C1 2.97 1 5.94 1 9 C0.67 9 0.34 9 0 9 C0 6.03 0 3.06 0 0 Z " fill="#FFFFFF" transform="translate(111,60)"/>
<path d="M0 0 C0.33 0 0.66 0 1 0 C1 2.64 1 5.28 1 8 C0.67 8 0.34 8 0 8 C0 5.36 0 2.72 0 0 Z " fill="#FFFFFF" transform="translate(90,60)"/>
<path d="M0 0 C2.31 0 4.62 0 7 0 C7 0.33 7 0.66 7 1 C4.69 1 2.38 1 0 1 C0 0.67 0 0.34 0 0 Z " fill="#FFFFFF" transform="translate(57,89)"/>
<path d="M0 0 C0.33 0 0.66 0 1 0 C1 1.65 1 3.3 1 5 C0.67 5 0.34 5 0 5 C0 3.35 0 1.7 0 0 Z " fill="#FFFFFF" transform="translate(72,99)"/>
<path d="M0 0 C0.33 0 0.66 0 1 0 C1 1.65 1 3.3 1 5 C0.67 5 0.34 5 0 5 C0 3.35 0 1.7 0 0 Z " fill="#FFFFFF" transform="translate(72,61)"/>
<path d="M0 0 C4 1 4 1 4 1 Z " fill="#FFFFFF" transform="translate(50,126)"/>
<path d="M0 0 C0.66 0.66 1.32 1.32 2 2 C1.34 2 0.68 2 0 2 C0 1.34 0 0.68 0 0 Z " fill="#D4D4D4" transform="translate(103,108)"/>
<path d="M0 0 C2 1 2 1 2 1 Z " fill="#FFFFFF" transform="translate(102,105)"/>
<path d="M0 0 C2 1 2 1 2 1 Z " fill="#FFFFFF" transform="translate(65,89)"/>
<path d="" fill="#FFFFFF" transform="translate(0,0)"/>
<path d="" fill="#FFFFFF" transform="translate(0,0)"/>
<path d="" fill="#000000" transform="translate(0,0)"/>
<path d="" fill="#000000" transform="translate(0,0)"/>
<path d="" fill="#000000" transform="translate(0,0)"/>
<path d="" fill="#000000" transform="translate(0,0)"/>
<path d="" fill="#000000" transform="translate(0,0)"/>
<path d="" fill="#404040" transform="translate(0,0)"/>
<path d="" fill="#000000" transform="translate(0,0)"/>
<path d="" fill="#000000" transform="translate(0,0)"/>
<path d="" fill="#000000" transform="translate(0,0)"/>
<path d="" fill="#000000" transform="translate(0,0)"/>
<path d="" fill="#000000" transform="translate(0,0)"/>
<path d="" fill="#FFFFFF" transform="translate(0,0)"/>
<path d="" fill="#40407F" transform="translate(0,0)"/>
<path d="" fill="#7F7F7F" transform="translate(0,0)"/>
<path d="" fill="#FFFFFF" transform="translate(0,0)"/>
<path d="" fill="#000000" transform="translate(0,0)"/>
<path d="" fill="#000000" transform="translate(0,0)"/>
<path d="" fill="#000000" transform="translate(0,0)"/>
<path d="" fill="#000000" transform="translate(0,0)"/>
<path d="" fill="#000000" transform="translate(0,0)"/>
<path d="" fill="#FFFFFF" transform="translate(0,0)"/>
<path d="" fill="#FFFFFF" transform="translate(0,0)"/>
<path d="" fill="#FFFFFF" transform="translate(0,0)"/>
<path d="" fill="#AAFFFF" transform="translate(0,0)"/>
<path d="" fill="#000000" transform="translate(0,0)"/>
<path d="" fill="#000000" transform="translate(0,0)"/>
<path d="" fill="#000000" transform="translate(0,0)"/>
<path d="" fill="#000000" transform="translate(0,0)"/>
<path d="" fill="#7F7F7F" transform="translate(0,0)"/>
<path d="" fill="#555555" transform="translate(0,0)"/>
<path d="" fill="#000055" transform="translate(0,0)"/>
<path d="" fill="#000000" transform="translate(0,0)"/>
<path d="" fill="#000000" transform="translate(0,0)"/>
<path d="" fill="#000000" transform="translate(0,0)"/>
<path d="" fill="#404040" transform="translate(0,0)"/>
<path d="" fill="#FFFFFF" transform="translate(0,0)"/>
<path d="" fill="#FFFFFF" transform="translate(0,0)"/>
<path d="" fill="#FFFFFF" transform="translate(0,0)"/>
<path d="" fill="#FFFFFF" transform="translate(0,0)"/>
<path d="" fill="#7F7F7F" transform="translate(0,0)"/>
<path d="" fill="#000000" transform="translate(0,0)"/>
<path d="" fill="#000000" transform="translate(0,0)"/>
<path d="" fill="#000000" transform="translate(0,0)"/>
<path d="" fill="#000000" transform="translate(0,0)"/>
<path d="" fill="#000000" transform="translate(0,0)"/>
<path d="" fill="#000000" transform="translate(0,0)"/>
<path d="" fill="#000000" transform="translate(0,0)"/>
<path d="" fill="#000000" transform="translate(0,0)"/>
<path d="" fill="#000000" transform="translate(0,0)"/>
<path d="" fill="#000000" transform="translate(0,0)"/>
<path d="" fill="#000000" transform="translate(0,0)"/>
<path d="" fill="#000000" transform="translate(0,0)"/>
<path d="" fill="#000000" transform="translate(0,0)"/>
<path d="" fill="#000000" transform="translate(0,0)"/>
<path d="" fill="#000000" transform="translate(0,0)"/>
<path d="" fill="#000000" transform="translate(0,0)"/>
<path d="" fill="#000000" transform="translate(0,0)"/>
<path d="" fill="#000000" transform="translate(0,0)"/>
<path d="" fill="#000000" transform="translate(0,0)"/>
<path d="" fill="#000000" transform="translate(0,0)"/>
<path d="" fill="#000000" transform="translate(0,0)"/>
<path d="" fill="#000000" transform="translate(0,0)"/>
<path d="" fill="#404040" transform="translate(0,0)"/>
<path d="" fill="#000000" transform="translate(0,0)"/>
<path d="" fill="#000000" transform="translate(0,0)"/>
<path d="" fill="#404040" transform="translate(0,0)"/>
<path d="" fill="#000000" transform="translate(0,0)"/>
<path d="" fill="#000000" transform="translate(0,0)"/>
</svg>
