<?xml version="1.0" encoding="UTF-8"?>
<svg version="1.1" xmlns="http://www.w3.org/2000/svg" width="128" height="128">
<path d="M0 0 C19.8 0 39.6 0 60 0 C60.71355696 4.99489869 61.12618777 9.27617028 61.12939453 14.2487793 C61.13114685 14.93587982 61.13289917 15.62298035 61.13470459 16.3309021 C61.13906916 18.57870079 61.13620527 20.82641941 61.1328125 23.07421875 C61.13348686 24.64646927 61.13445799 26.21871969 61.13571167 27.79096985 C61.13718113 31.07493082 61.13505745 34.35886448 61.13037109 37.64282227 C61.12466011 41.8493729 61.12796621 46.05585992 61.13394356 50.26240826 C61.13755745 53.50432311 61.13640701 56.74622289 61.13381577 59.9881382 C61.13314952 61.53946757 61.13396434 63.09079832 61.13629532 64.64212608 C61.13883696 66.80792245 61.13496055 68.97361561 61.12939453 71.1394043 C61.12859894 72.37071579 61.12780334 73.60202728 61.12698364 74.87065125 C61.02222428 77.45231119 60.76685797 79.55058839 60 82 C58.02 82 56.04 82 54 82 C53.67 81.34 53.34 80.68 53 80 C52.25234375 80.08378906 51.5046875 80.16757813 50.734375 80.25390625 C49.74953125 80.35574219 48.7646875 80.45757812 47.75 80.5625 C46.28820312 80.71912109 46.28820312 80.71912109 44.796875 80.87890625 C42.2143403 80.9907199 40.45354778 80.69174915 38 80 C36.948125 80.2165625 36.948125 80.2165625 35.875 80.4375 C31.28523043 81.33549839 25.27781189 82.13890594 21 80 C19.6078125 80.556875 19.6078125 80.556875 18.1875 81.125 C15 82 15 82 12.3125 80.625 C11.549375 80.08875 10.78625 79.5525 10 79 C9.01 79 8.02 79 7 79 C6.67 79.99 6.34 80.98 6 82 C4.02 82 2.04 82 0 82 C0 54.94 0 27.88 0 0 Z M59 7 C59 11.95 59 16.9 59 22 C59.33 22 59.66 22 60 22 C60 17.05 60 12.1 60 7 C59.67 7 59.34 7 59 7 Z M59 23 C60 27 60 27 60 27 Z M59 37 C59 41.29 59 45.58 59 50 C59.33 50 59.66 50 60 50 C60 45.71 60 41.42 60 37 C59.67 37 59.34 37 59 37 Z M59 51 C59 53.64 59 56.28 59 59 C59.33 59 59.66 59 60 59 C60 56.36 60 53.72 60 51 C59.67 51 59.34 51 59 51 Z " fill="#22BEE2" transform="translate(34,23)"/>
<path d="M0 0 C19.8 0 39.6 0 60 0 C60.71355696 4.99489869 61.12618777 9.27617028 61.12939453 14.2487793 C61.13114685 14.93587982 61.13289917 15.62298035 61.13470459 16.3309021 C61.13906916 18.57870079 61.13620527 20.82641941 61.1328125 23.07421875 C61.13348686 24.64646927 61.13445799 26.21871969 61.13571167 27.79096985 C61.13718113 31.07493082 61.13505745 34.35886448 61.13037109 37.64282227 C61.12466011 41.8493729 61.12796621 46.05585992 61.13394356 50.26240826 C61.13755745 53.50432311 61.13640701 56.74622289 61.13381577 59.9881382 C61.13314952 61.53946757 61.13396434 63.09079832 61.13629532 64.64212608 C61.13883696 66.80792245 61.13496055 68.97361561 61.12939453 71.1394043 C61.12859894 72.37071579 61.12780334 73.60202728 61.12698364 74.87065125 C61.02222428 77.45231119 60.76685797 79.55058839 60 82 C58.02 82 56.04 82 54 82 C53.67 81.34 53.34 80.68 53 80 C52.25234375 80.08378906 51.5046875 80.16757813 50.734375 80.25390625 C49.74953125 80.35574219 48.7646875 80.45757812 47.75 80.5625 C46.28820312 80.71912109 46.28820312 80.71912109 44.796875 80.87890625 C42.2143403 80.9907199 40.45354778 80.69174915 38 80 C36.948125 80.2165625 36.948125 80.2165625 35.875 80.4375 C31.28523043 81.33549839 25.27781189 82.13890594 21 80 C19.6078125 80.556875 19.6078125 80.556875 18.1875 81.125 C15 82 15 82 12.3125 80.625 C11.549375 80.08875 10.78625 79.5525 10 79 C9.01 79 8.02 79 7 79 C6.67 79.99 6.34 80.98 6 82 C4.02 82 2.04 82 0 82 C0 54.94 0 27.88 0 0 Z M5 5 C5 27.77 5 50.54 5 74 C6.65 74 8.3 74 10 74 C10.66 74.66 11.32 75.32 12 76 C13.89667109 75.71447643 13.89667109 75.71447643 16 75 C18.625 74.3125 18.625 74.3125 21 74 C21.66 74.66 22.32 75.32 23 76 C24.89667109 75.71447643 24.89667109 75.71447643 27 75 C29.625 74.3125 29.625 74.3125 32 74 C32.66 74.66 33.32 75.32 34 76 C35.89667109 75.71447643 35.89667109 75.71447643 38 75 C40.625 74.3125 40.625 74.3125 43 74 C43.99 74.99 43.99 74.99 45 76 C46.94074861 75.72382467 46.94074861 75.72382467 49 75 C51.10618396 74.44248072 52.81884536 74 55 74 C55 51.23 55 28.46 55 5 C38.5 5 22 5 5 5 Z M59 7 C59 11.95 59 16.9 59 22 C59.33 22 59.66 22 60 22 C60 17.05 60 12.1 60 7 C59.67 7 59.34 7 59 7 Z M59 23 C60 27 60 27 60 27 Z M59 37 C59 41.29 59 45.58 59 50 C59.33 50 59.66 50 60 50 C60 45.71 60 41.42 60 37 C59.67 37 59.34 37 59 37 Z M59 51 C59 53.64 59 56.28 59 59 C59.33 59 59.66 59 60 59 C60 56.36 60 53.72 60 51 C59.67 51 59.34 51 59 51 Z " fill="#5E5AAC" transform="translate(34,23)"/>
<path d="M0 0 C1.73431274 0.00616333 1.73431274 0.00616333 3.50366211 0.01245117 C4.75598633 0.01438477 6.00831055 0.01631836 7.29858398 0.01831055 C9.26988281 0.03667969 9.26988281 0.03667969 11.28100586 0.05541992 C12.59907227 0.05606445 13.91713867 0.05670898 15.27514648 0.05737305 C25.07841463 0.1028287 25.07841463 0.1028287 26.21850586 1.24291992 C26.30502197 2.65862115 26.3255549 4.07851493 26.31616211 5.49682617 C26.31293945 6.35083008 26.3097168 7.20483398 26.30639648 8.0847168 C26.29801758 8.98254883 26.28963867 9.88038086 26.28100586 10.80541992 C26.27649414 11.70711914 26.27198242 12.60881836 26.26733398 13.5378418 C26.2555081 15.77293306 26.23902806 18.00789429 26.21850586 20.24291992 C21.96435963 20.26757614 17.71025088 20.28575891 13.45605469 20.29785156 C12.00780513 20.30289093 10.55956069 20.30972245 9.11132812 20.31835938 C7.03375998 20.33044239 4.95625889 20.33615203 2.87866211 20.34057617 C1.62706299 20.34581299 0.37546387 20.3510498 -0.9140625 20.35644531 C-3.78149414 20.24291992 -3.78149414 20.24291992 -4.78149414 19.24291992 C-4.90812505 16.4187561 -4.96669962 13.62997199 -4.96899414 10.80541992 C-4.98124023 10.01586914 -4.99348633 9.22631836 -5.00610352 8.4128418 C-5.01136693 6.35484558 -4.903557 4.29729983 -4.78149414 2.24291992 C-2.78149414 0.24291992 -2.78149414 0.24291992 0 0 Z " fill="#30CCA4" transform="translate(53.781494140625,70.757080078125)"/>
<path d="M0 0 C0.99 0.33 1.98 0.66 3 1 C3 24.1 3 47.2 3 71 C4.485 70.01 4.485 70.01 6 69 C7.9375 69.3125 7.9375 69.3125 10 70 C12.05925139 70.72382467 12.05925139 70.72382467 14 71 C14.99 70.01 14.99 70.01 16 69 C18.50155602 69.32915211 20.78296208 69.93178808 23.1875 70.6875 C23.785625 70.790625 24.38375 70.89375 25 71 C25.99 70.01 25.99 70.01 27 69 C29.50155602 69.32915211 31.78296208 69.93178808 34.1875 70.6875 C34.785625 70.790625 35.38375 70.89375 36 71 C36.66 70.34 37.32 69.68 38 69 C40.50155602 69.32915211 42.78296208 69.93178808 45.1875 70.6875 C45.785625 70.790625 46.38375 70.89375 47 71 C47.66 70.34 48.32 69.68 49 69 C49.99 69 50.98 69 52 69 C52 69.99 52 70.98 52 72 C54.31 72.66 56.62 73.32 59 74 C59 75.32 59 76.64 59 78 C57.02 78 55.04 78 53 78 C52.67 77.34 52.34 76.68 52 76 C51.25234375 76.08378906 50.5046875 76.16757813 49.734375 76.25390625 C48.74953125 76.35574219 47.7646875 76.45757812 46.75 76.5625 C45.28820312 76.71912109 45.28820312 76.71912109 43.796875 76.87890625 C41.2143403 76.9907199 39.45354778 76.69174915 37 76 C35.948125 76.2165625 35.948125 76.2165625 34.875 76.4375 C30.28523043 77.33549839 24.27781189 78.13890594 20 76 C18.6078125 76.556875 18.6078125 76.556875 17.1875 77.125 C14 78 14 78 11.3125 76.625 C10.549375 76.08875 9.78625 75.5525 9 75 C8.01 75 7.02 75 6 75 C5.67 75.99 5.34 76.98 5 78 C3.02 78 1.04 78 -1 78 C-0.67 52.26 -0.34 26.52 0 0 Z " fill="#321C92" transform="translate(35,27)"/>
<path d="M0 0 C8.58 0 17.16 0 26 0 C26.66 1.32 27.32 2.64 28 4 C26.25493385 5.74506615 23.80960857 5.23282784 21.43359375 5.31640625 C19.7465332 5.37924805 19.7465332 5.37924805 18.02539062 5.44335938 C16.84138672 5.48267578 15.65738281 5.52199219 14.4375 5.5625 C13.24962891 5.60568359 12.06175781 5.64886719 10.83789062 5.69335938 C7.89205216 5.79983546 4.9461257 5.90184841 2 6 C1.34 7.32 0.68 8.64 0 10 C0.33 9.67 0.66 9.34 1 9 C3.35313555 8.92728259 5.70833668 8.91629132 8.0625 8.9375 C9.35285156 8.94652344 10.64320312 8.95554687 11.97265625 8.96484375 C12.97167969 8.97644531 13.97070312 8.98804688 15 9 C16 13.875 16 13.875 16 15 C11.545 15.495 11.545 15.495 7 16 C8.39025391 16.09087891 8.39025391 16.09087891 9.80859375 16.18359375 C11.00613281 16.26738281 12.20367187 16.35117187 13.4375 16.4375 C14.63246094 16.51871094 15.82742187 16.59992187 17.05859375 16.68359375 C20 17 20 17 21 18 C21.125 20.5 21.125 20.5 21 23 C20.67 23.33 20.34 23.66 20 24 C22.31 24.33 24.62 24.66 27 25 C27.33 26.32 27.66 27.64 28 29 C18.76 29 9.52 29 0 29 C0 27.68 0 26.36 0 25 C-0.66 25 -1.32 25 -2 25 C-2.33 25.99 -2.66 26.98 -3 28 C-3 25.03 -3 22.06 -3 19 C-2.67 19.99 -2.34 20.98 -2 22 C-1.34 22 -0.68 22 0 22 C-0.33 20.68 -0.66 19.36 -1 18 C-1.66 18 -2.32 18 -3 18 C-3.26666667 10 -3.26666667 10 -1 6 C-0.67 4.02 -0.34 2.04 0 0 Z " fill="#28A5D6" transform="translate(44,36)"/>
<path d="M0 0 C1.73431274 0.00616333 1.73431274 0.00616333 3.50366211 0.01245117 C4.75598633 0.01438477 6.00831055 0.01631836 7.29858398 0.01831055 C9.26988281 0.03667969 9.26988281 0.03667969 11.28100586 0.05541992 C12.59907227 0.05606445 13.91713867 0.05670898 15.27514648 0.05737305 C25.07841463 0.1028287 25.07841463 0.1028287 26.21850586 1.24291992 C26.30502197 2.65862115 26.3255549 4.07851493 26.31616211 5.49682617 C26.31293945 6.35083008 26.3097168 7.20483398 26.30639648 8.0847168 C26.29801758 8.98254883 26.28963867 9.88038086 26.28100586 10.80541992 C26.27649414 11.70711914 26.27198242 12.60881836 26.26733398 13.5378418 C26.2555081 15.77293306 26.23902806 18.00789429 26.21850586 20.24291992 C21.96435963 20.26757614 17.71025088 20.28575891 13.45605469 20.29785156 C12.00780513 20.30289093 10.55956069 20.30972245 9.11132812 20.31835938 C7.03375998 20.33044239 4.95625889 20.33615203 2.87866211 20.34057617 C1.62706299 20.34581299 0.37546387 20.3510498 -0.9140625 20.35644531 C-3.78149414 20.24291992 -3.78149414 20.24291992 -4.78149414 19.24291992 C-4.90812505 16.4187561 -4.96669962 13.62997199 -4.96899414 10.80541992 C-4.98124023 10.01586914 -4.99348633 9.22631836 -5.00610352 8.4128418 C-5.01136693 6.35484558 -4.903557 4.29729983 -4.78149414 2.24291992 C-2.78149414 0.24291992 -2.78149414 0.24291992 0 0 Z M-0.78149414 4.24291992 C-0.78149414 8.53291992 -0.78149414 12.82291992 -0.78149414 17.24291992 C7.13850586 17.24291992 15.05850586 17.24291992 23.21850586 17.24291992 C23.21850586 12.95291992 23.21850586 8.66291992 23.21850586 4.24291992 C15.29850586 4.24291992 7.37850586 4.24291992 -0.78149414 4.24291992 Z " fill="#2B2492" transform="translate(53.781494140625,70.757080078125)"/>
<path d="M0 0 C1.32 0.33 2.64 0.66 4 1 C4 21.79 4 42.58 4 64 C3.34 64 2.68 64 2 64 C2 66.64 2 69.28 2 72 C1.34 71.67 0.68 71.34 0 71 C0 47.57 0 24.14 0 0 Z " fill="#2C1783" transform="translate(90,28)"/>
<path d="M0 0 C0.33 0.99 0.66 1.98 1 3 C7.6 3 14.2 3 21 3 C20.67 3.99 20.34 4.98 20 6 C22.31 6.33 24.62 6.66 27 7 C27.33 8.32 27.66 9.64 28 11 C18.76 11 9.52 11 0 11 C0 9.68 0 8.36 0 7 C-0.66 7 -1.32 7 -2 7 C-2.33 7.99 -2.66 8.98 -3 10 C-3 7.03 -3 4.06 -3 1 C-2.67 1.99 -2.34 2.98 -2 4 C-1.34 4 -0.68 4 0 4 C0 2.68 0 1.36 0 0 Z " fill="#27B0DE" transform="translate(44,54)"/>
<path d="M0 0 C0.33 0 0.66 0 1 0 C1.33 23.43 1.66 46.86 2 71 C2.33 68.69 2.66 66.38 3 64 C3.18433594 63.17218018 3.36867188 62.34436035 3.55859375 61.49145508 C4.11766616 58.33585002 4.09338961 55.34130128 4.0625 52.13671875 C4.05393325 50.77140364 4.04547406 49.40608785 4.03710938 48.04077148 C4.03090576 47.32960175 4.02470215 46.61843201 4.01831055 45.88571167 C3.896236 31.23045933 4.19995617 16.63697204 5 2 C5.33 2 5.66 2 6 2 C6 25.43 6 48.86 6 73 C1 73 1 73 -2 71 C-2 70.34 -2 69.68 -2 69 C-1.34 69 -0.68 69 0 69 C0 46.23 0 23.46 0 0 Z " fill="#97A4D3" transform="translate(89,28)"/>
<path d="M0 0 C2.46634807 0.39994834 4.80367774 0.93829872 7.1875 1.6875 C7.785625 1.790625 8.38375 1.89375 9 2 C9.66 1.34 10.32 0.68 11 0 C11.99 0 12.98 0 14 0 C14 0.99 14 1.98 14 3 C16.31 3.66 18.62 4.32 21 5 C21 6.32 21 7.64 21 9 C19.02 9 17.04 9 15 9 C14.67 8.34 14.34 7.68 14 7 C12.87851563 7.12568359 12.87851563 7.12568359 11.734375 7.25390625 C10.25710937 7.40666016 10.25710937 7.40666016 8.75 7.5625 C7.77546875 7.66691406 6.8009375 7.77132812 5.796875 7.87890625 C3.2117355 7.99083268 1.45674932 7.68660243 -1 7 C-2.671549 7.30791692 -4.33805547 7.64386903 -6 8 C-7.9996441 8.03772913 -10.00054061 8.04649906 -12 8 C-11.67 6.68 -11.34 5.36 -11 4 C-10.278125 3.87625 -9.55625 3.7525 -8.8125 3.625 C-4.01787153 2.61187569 -4.01787153 2.61187569 0 0 Z " fill="#31227F" transform="translate(73,96)"/>
<path d="M0 0 C9.24 0 18.48 0 28 0 C28 0.33 28 0.66 28 1 C20.08 1 12.16 1 4 1 C4 5.95 4 10.9 4 16 C10.27 16 16.54 16 23 16 C23 16.33 23 16.66 23 17 C19.3545658 17.19588601 15.7086421 17.38030536 12.0625 17.5625 C11.02158203 17.61857422 9.98066406 17.67464844 8.90820312 17.73242188 C7.91884766 17.78076172 6.92949219 17.82910156 5.91015625 17.87890625 C4.53549194 17.94960327 4.53549194 17.94960327 3.13305664 18.02172852 C1 18 1 18 0 17 C-0.07330331 14.13530675 -0.09217831 11.30106326 -0.0625 8.4375 C-0.041875 5.653125 -0.02125 2.86875 0 0 Z " fill="#322395" transform="translate(49,73)"/>
<path d="M0 0 C0.33 0 0.66 0 1 0 C1 24.42 1 48.84 1 74 C2.65 74.66 4.3 75.32 6 76 C5.505 76.99 5.505 76.99 5 78 C3.02 78 1.04 78 -1 78 C-0.67 52.26 -0.34 26.52 0 0 Z " fill="#2A1A80" transform="translate(35,27)"/>
<path d="M0 0 C1.25159912 0.04713135 2.50319824 0.0942627 3.79272461 0.14282227 C4.45719101 0.16643326 5.12165741 0.19004425 5.80625916 0.21437073 C7.93607115 0.29116537 10.06553382 0.37512065 12.19506836 0.45922852 C13.63580627 0.51243345 15.07656141 0.56517394 16.51733398 0.61743164 C20.05596149 0.74680138 23.59430977 0.88259592 27.13256836 1.02172852 C27.13256836 1.35172852 27.13256836 1.68172852 27.13256836 2.02172852 C26.4818335 2.03631104 25.83109863 2.05089355 25.16064453 2.06591797 C22.2131853 2.140374 19.26686194 2.23704117 16.32006836 2.33422852 C15.2959082 2.35678711 14.27174805 2.3793457 13.21655273 2.40258789 C12.23364258 2.43803711 11.25073242 2.47348633 10.23803711 2.51000977 C9.33206787 2.53619385 8.42609863 2.56237793 7.49267578 2.58935547 C4.70028371 3.10092331 3.93189619 3.89291381 2.13256836 6.02172852 C-2.13832501 9.08801094 -2.13832501 9.08801094 -4.92993164 8.83422852 C-6.96250338 7.98185972 -8.92449754 7.06258607 -10.86743164 6.02172852 C-10.86743164 5.03172852 -10.86743164 4.04172852 -10.86743164 3.02172852 C-10.20743164 3.02172852 -9.54743164 3.02172852 -8.86743164 3.02172852 C-8.86743164 3.68172852 -8.86743164 4.34172852 -8.86743164 5.02172852 C-8.20743164 5.02172852 -7.54743164 5.02172852 -6.86743164 5.02172852 C-6.86743164 4.36172852 -6.86743164 3.70172852 -6.86743164 3.02172852 C-6.20743164 3.02172852 -5.54743164 3.02172852 -4.86743164 3.02172852 C-4.53743164 2.36172852 -4.20743164 1.70172852 -3.86743164 1.02172852 C-2.86743164 0.02172852 -2.86743164 0.02172852 0 0 Z " fill="#29AADB" transform="translate(51.867431640625,89.978271484375)"/>
<path d="M0 0 C0 5.61 0 11.22 0 17 C-12.87 16.505 -12.87 16.505 -26 16 C-26 15.67 -26 15.34 -26 15 C-18.08 15 -10.16 15 -2 15 C-2 10.71 -2 6.42 -2 2 C-9.92 2 -17.84 2 -26 2 C-26 1.67 -26 1.34 -26 1 C-21.85417952 0.83301248 -17.70834155 0.66646352 -13.5625 0.5 C-12.37849609 0.45230469 -11.19449219 0.40460938 -9.97460938 0.35546875 C-8.84990234 0.31035156 -7.72519531 0.26523438 -6.56640625 0.21875 C-5.00321655 0.1559082 -5.00321655 0.1559082 -3.40844727 0.09179688 C-1 0 -1 0 0 0 Z " fill="#2A148B" transform="translate(79,73)"/>
<path d="M0 0 C8.58 0 17.16 0 26 0 C26.33 0.99 26.66 1.98 27 3 C18.09 3 9.18 3 0 3 C0 2.01 0 1.02 0 0 Z " fill="#2C1589" transform="translate(45,62)"/>
<path d="M0 0 C8.58 0 17.16 0 26 0 C26.33 0.99 26.66 1.98 27 3 C18.09 3 9.18 3 0 3 C0 2.01 0 1.02 0 0 Z " fill="#2E168A" transform="translate(45,37)"/>
<path d="M0 0 C6.27 0 12.54 0 19 0 C19.33 1.32 19.66 2.64 20 4 C13.4 4 6.8 4 0 4 C0 2.68 0 1.36 0 0 Z " fill="#2C2B95" transform="translate(45,53)"/>
<path d="M0 0 C4.95 0 9.9 0 15 0 C15.66 1.65 16.32 3.3 17 5 C16.34 5.66 15.68 6.32 15 7 C12.40730017 6.98252112 9.9474846 6.86231408 7.375 6.625 C6.66859375 6.56828125 5.9621875 6.5115625 5.234375 6.453125 C3.48878639 6.31159079 1.74426327 6.15702613 0 6 C0 5.67 0 5.34 0 5 C4.62 4.67 9.24 4.34 14 4 C14 3.34 14 2.68 14 2 C7.07 1.505 7.07 1.505 0 1 C0 0.67 0 0.34 0 0 Z M19 9 C12.73 9 6.46 9 0 9 C0 8.67 0 8.34 0 8 C6.75360167 6.61464581 12.76232768 5.88116384 19 9 Z " fill="#2BC8EE" transform="translate(45,44)"/>
<path d="M0 0 C4.62 0 9.24 0 14 0 C14 1.32 14 2.64 14 4 C9.38 4 4.76 4 0 4 C0 2.68 0 1.36 0 0 Z " fill="#2D2793" transform="translate(45,45)"/>
<path d="M0 0 C2 2 2 2 2 4 C0.25093341 4.19601608 -1.49931846 4.38147403 -3.25 4.5625 C-4.22453125 4.66691406 -5.1990625 4.77132812 -6.203125 4.87890625 C-8.7631352 4.98974468 -10.58148159 4.77738092 -13 4 C-12.67 3.01 -12.34 2.02 -12 1 C-7.94392005 0.01670789 -4.16937798 -0.23600253 0 0 Z " fill="#392E71" transform="translate(74,99)"/>
<path d="M0 0 C3.3063908 0.55106513 6.19982126 1.09987871 9 3 C9.75 5.125 9.75 5.125 10 7 C5.25 8.125 5.25 8.125 3 7 C3 6.01 3 5.02 3 4 C1.35 3.67 -0.3 3.34 -2 3 C-1.34 2.01 -0.68 1.02 0 0 Z " fill="#36278D" transform="translate(73,96)"/>
<path d="M0 0 C1.65 0.33 3.3 0.66 5 1 C5 4 5 4 4 7 C0.9375 8.1875 0.9375 8.1875 -2 9 C-2 7.68 -2 6.36 -2 5 C-2.66 4.67 -3.32 4.34 -4 4 C-3.34 4 -2.68 4 -2 4 C-1.34 2.68 -0.68 1.36 0 0 Z " fill="#302579" transform="translate(51,96)"/>
<path d="M0 0 C3.34097385 0.59660247 5.54300129 1.63075125 8 4 C8 5.32 8 6.64 8 8 C5.03824877 7.38722388 3.61941217 6.74627478 1 5 C-1.15274948 5.30840599 -1.15274948 5.30840599 -3 6 C-3 5.34 -3 4.68 -3 4 C-2.01 4 -1.02 4 0 4 C0 2.68 0 1.36 0 0 Z " fill="#362592" transform="translate(41,96)"/>
<path d="M0 0 C0.33 0.66 0.66 1.32 1 2 C1.66 2 2.32 2 3 2 C3 3.65 3 5.3 3 7 C2.34 7 1.68 7 1 7 C1 9.64 1 12.28 1 15 C0.34 14.67 -0.32 14.34 -1 14 C-0.67 9.38 -0.34 4.76 0 0 Z " fill="#332189" transform="translate(91,85)"/>
<path d="M0 0 C1.5 1.125 1.5 1.125 3 3 C3.1875 6.1875 3.1875 6.1875 3 9 C-0.71599191 9.20086443 -1.77208445 9.1519437 -5 7 C-4.67 6.34 -4.34 5.68 -4 5 C-2.515 5.99 -2.515 5.99 -1 7 C-0.67 4.69 -0.34 2.38 0 0 Z " fill="#6A60A1" transform="translate(92,92)"/>
<path d="M0 0 C0 1.98 0 3.96 0 6 C-0.66 4.68 -1.32 3.36 -2 2 C-5.96 2 -9.92 2 -14 2 C-14 1.67 -14 1.34 -14 1 C-12.04175306 0.83232136 -10.08339945 0.66588795 -8.125 0.5 C-6.48917969 0.36078125 -6.48917969 0.36078125 -4.8203125 0.21875 C-3.21670436 0.09437042 -1.60842449 0 0 0 Z " fill="#625A8F" transform="translate(94,23)"/>
<path d="M0 0 C1.98 0 3.96 0 6 0 C6 1.32 6 2.64 6 4 C4.02 4 2.04 4 0 4 C0 2.68 0 1.36 0 0 Z " fill="#372E69" transform="translate(88,101)"/>
<path d="M0 0 C1.98 0.495 1.98 0.495 4 1 C4 2.32 4 3.64 4 5 C2.68 4.67 1.36 4.34 0 4 C0 2.68 0 1.36 0 0 Z " fill="#403498" transform="translate(45,99)"/>
<path d="M0 0 C1.65 0.33 3.3 0.66 5 1 C5 1.99 5 2.98 5 4 C3.02 4 1.04 4 -1 4 C-0.67 2.68 -0.34 1.36 0 0 Z " fill="#332C5B" transform="translate(35,101)"/>
<path d="M0 0 C0.99 0 1.98 0 3 0 C3.33 1.65 3.66 3.3 4 5 C2.68 4.67 1.36 4.34 0 4 C0 2.68 0 1.36 0 0 Z " fill="#413499" transform="translate(56,99)"/>
<path d="M0 0 C0.33 0 0.66 0 1 0 C1 3.3 1 6.6 1 10 C0.34 9.67 -0.32 9.34 -1 9 C-0.67 6.03 -0.34 3.06 0 0 Z " fill="#FFFFFF" transform="translate(97,53)"/>
<path d="M0 0 C0.33 0 0.66 0 1 0 C1 2.64 1 5.28 1 8 C0.67 8 0.34 8 0 8 C0 5.36 0 2.72 0 0 Z " fill="#FFFFFF" transform="translate(96,63)"/>
<path d="M0 0 C0 3 0 3 0 3 Z " fill="#FFFFFF" transform="translate(97,72)"/>
<path d="" fill="#FFFFFF" transform="translate(0,0)"/>
<path d="" fill="#000000" transform="translate(0,0)"/>
<path d="" fill="#000000" transform="translate(0,0)"/>
<path d="" fill="#000000" transform="translate(0,0)"/>
<path d="" fill="#000000" transform="translate(0,0)"/>
<path d="" fill="#000000" transform="translate(0,0)"/>
<path d="" fill="#000000" transform="translate(0,0)"/>
<path d="" fill="#000000" transform="translate(0,0)"/>
<path d="" fill="#000000" transform="translate(0,0)"/>
<path d="" fill="#000000" transform="translate(0,0)"/>
<path d="" fill="#000000" transform="translate(0,0)"/>
<path d="" fill="#000000" transform="translate(0,0)"/>
<path d="" fill="#000000" transform="translate(0,0)"/>
<path d="" fill="#000000" transform="translate(0,0)"/>
<path d="" fill="#000000" transform="translate(0,0)"/>
<path d="" fill="#000000" transform="translate(0,0)"/>
</svg>
